<?xml version="1.0" encoding="iso-8859-1"?>
<!-- Generator: Adobe Illustrator 19.0.0, SVG Export Plug-In . SVG Version: 6.00 Build 0)  -->
<svg version="1.1" id="Capa_1" xmlns="http://www.w3.org/2000/svg" xmlns:xlink="http://www.w3.org/1999/xlink" x="0px" y="0px"
	 viewBox="0 0 490.667 490.667" style="enable-background:new 0 0 490.667 490.667;" xml:space="preserve">
<path style="fill: black;" d="M245.333,0C109.839,0,0,109.839,0,245.333s109.839,245.333,245.333,245.333
	s245.333-109.839,245.333-245.333C490.514,109.903,380.764,0.153,245.333,0z"/>
<path style="fill: #0066b9;" d="M373.333,192H249.749l19.2-19.2c18.893-18.881,18.902-49.503,0.021-68.395
	c-0.007-0.007-0.014-0.014-0.021-0.021c-19.179-18.247-49.317-18.181-68.416,0.149L82.219,222.699
	c-12.492,12.496-12.492,32.752,0,45.248l118.315,118.187c17.565,20.137,48.13,22.222,68.267,4.656
	c20.137-17.565,22.222-48.13,4.656-68.267c-1.445-1.656-3-3.212-4.656-4.656l-19.2-19.2h123.733
	c29.455,0,53.333-23.878,53.333-53.333S402.789,192,373.333,192z"/>
<g>
</g>
<g>
</g>
<g>
</g>
<g>
</g>
<g>
</g>
<g>
</g>
<g>
</g>
<g>
</g>
<g>
</g>
<g>
</g>
<g>
</g>
<g>
</g>
<g>
</g>
<g>
</g>
<g>
</g>
</svg>
