<?xml version="1.0" encoding="iso-8859-1"?>
<!-- Generator: Adobe Illustrator 19.0.0, SVG Export Plug-In . SVG Version: 6.00 Build 0)  -->
<svg version="1.1" id="Capa_1" xmlns="http://www.w3.org/2000/svg" xmlns:xlink="http://www.w3.org/1999/xlink" x="0px" y="0px"
	 viewBox="0 0 511.999 511.999" style="enable-background:new 0 0 511.999 511.999;" xml:space="preserve">
<path style="fill:#194066;" d="M511.999,255.999c0,8.463-0.417,16.832-1.219,25.087c-0.281,2.856-0.604,5.701-0.98,8.536
	c-0.135,1.021-0.271,2.032-0.427,3.043c-0.24,1.73-0.5,3.45-0.792,5.169v0.01c-19.969,121.128-125.151,213.501-251.928,213.501
	c-141.024,0-255.347-114.322-255.347-255.347c0-31.309,5.638-61.314,15.957-89.038C53.397,69.836,146.947,0.653,256.652,0.653
	c88.027,0,165.663,44.545,211.573,112.332c0.698,1.032,1.397,2.074,2.084,3.127c4.732,7.212,9.099,14.675,13.101,22.366
	c1.397,2.689,2.751,5.409,4.044,8.161c3.45,7.243,6.556,14.675,9.297,22.272c0.396,1.073,0.782,2.147,1.157,3.22
	C507.038,198.406,511.999,226.619,511.999,255.999z"/>
<path style="fill:#D1E3B4;" d="M509.373,292.665c-0.24,1.73-0.5,3.45-0.792,5.169v0.01
	c-19.969,121.128-125.151,213.501-251.928,213.501c-141.024,0-255.347-114.322-255.347-255.347c0-31.309,5.638-61.314,15.957-89.038
	l9.036,11.954l19.115,5.711l22.596,15.633l143.828,64.618l156.335-54.717l55.499,13.028L509.373,292.665z"/>
<g>
	<path style="fill:#2D3A3E;" d="M39.752,184.985c-14.261,0-18.713-7.808-22.692-14.787c-3.48-6.102-6.228-10.922-14.975-10.922
		c-1.151,0-2.084-0.934-2.084-2.084c0-1.151,0.934-2.084,2.084-2.084c11.169,0,15.114,6.92,18.597,13.026
		c4.191,7.351,8.151,14.294,24.232,12.35c1.152-0.142,2.182,0.676,2.32,1.819c0.139,1.143-0.675,2.181-1.819,2.32
		C43.368,184.87,41.488,184.985,39.752,184.985z"/>
	<path style="fill:#2D3A3E;" d="M20.704,174.376c-0.29,0-0.586-0.061-0.866-0.19c-1.047-0.479-1.507-1.716-1.028-2.763
		c4.212-9.205,6.554-23.455,6.576-23.598c0.184-1.135,1.251-1.911,2.392-1.724c1.136,0.184,1.908,1.255,1.724,2.391
		c-0.099,0.606-2.458,14.954-6.902,24.665C22.251,173.925,21.494,174.376,20.704,174.376z"/>
</g>
<path style="fill:#D1E3B4;" d="M510.78,281.086c-0.281,2.856-0.604,5.701-0.98,8.536c-0.354,2.751-0.761,5.493-1.219,8.213v0.01
	c-18.104-11.485-59.449-42.846-71.883-47.89c-1.146-0.469-2.481-1.001-3.992-1.574L409.6,271.487l14.935,2.084l31.965-5.555
	l-27.452,12.507l41.689,35.436l-43.419-24.315l-7.65,40.991v-42.731l-32.997,20.501l25.014-25.014l-27.796-2.783l27.067-40.605
	c-16.842-3.377-38.49-3.95-59.032,7.254c-34.394,18.76-52.456,52.112-129.924,64.618c-0.823,0.135-1.647,0.24-2.47,0.344
	l5.941,3.127l-35.436,43.774l16.332,24.326l-22.585-14.591l-24.315,44.816l14.237-46.556l-28.14,5.211l24.492-12.684l-17.885-17.885
	l29.182,10.766l16.676-29.526l-19.01-16.811c-17.812-6.806-35.436-18.291-51.643-31.402c-0.313,0.334-0.615,0.667-0.917,0.959
	c-12.163,12.163-46.9,10.777-62.534-4.857s-23.627-91.716-23.627-91.716s16.676-4.867,38.219-9.734
	c21.543-4.857,40.991-15.279,66.004,0.698s14.591,48.641,14.591,48.641c4.732,2.772,10.089,5.732,16.019,8.536l32.966-29.037
	l-10.068-10.078l-30.923,9.036l21.887-15.633l-28.839-32.653l34.748,23.273l2.084-44.472l9.026,45.858l28.14-12.851l-22.054,22.064
	l16.842,14.07l-31.892,38.708c15.456,4.336,33.466,6.139,53.779,1.939c40.303-8.338,87.547-53.508,136.188-45.17
	c17.541,3.012,30.642,7.108,41.22,12.382l-4.044-24.274l33.351-11.986l-23.45-38.823l26.316,22.669l7.817-41.345l2.084-11.027
	v48.203l13.101-11.683l25.462-22.71l-21.418,30.871l-9.849,14.206l19.146,8.067l10.558,4.44l-9.401-1.219l-20.824-2.689
	l-32.83,20.324l8.546,34.967c6.264,6.337,11.996,13.559,18.291,21.741C479.471,257.365,493.239,269.945,510.78,281.086z"/>
<path style="fill:#194066;" d="M432.706,248.381L409.6,271.497l14.935,2.084l31.965-5.565l-27.442,12.507l41.689,35.436
	l-43.43-24.315l-7.64,40.991v-42.731l-33.007,20.501l25.014-25.014l-27.796-2.783l27.077-40.595
	c-16.853-3.387-38.5-3.95-59.032,7.243c-34.394,18.76-52.466,52.112-129.935,64.618c-0.823,0.135-1.647,0.24-2.46,0.344l5.93,3.137
	l-35.436,43.774l16.332,24.315l-22.585-14.591l-24.315,44.816l14.247-46.556l-28.14,5.211l24.492-12.674l-17.895-17.895
	l29.182,10.766l16.676-29.526l-19.01-16.811c-17.812-6.806-35.436-18.291-51.643-31.402c-0.302,0.344-0.615,0.667-0.917,0.969
	c-12.152,12.152-46.9,10.766-62.534-4.867s-23.617-91.716-23.617-91.716c50.371,50.371,123.671,95.187,176.481,95.187
	s88.934-22.929,112.561-37.52c23.627-14.591,36.822-26.4,69.486-22.231c32.653,4.169,79.804,52.174,107.694,70.872
	c1.105,0.74,2.189,1.449,3.273,2.147c-0.354,2.751-0.761,5.493-1.219,8.213c-18.114-11.485-59.459-42.846-71.883-47.88
	C435.562,249.496,434.217,248.954,432.706,248.381z"/>
<circle style="fill:#D2E4B5;" cx="79.907" cy="240.223" r="8.338"/>
<circle style="fill:#194066;" cx="115.937" cy="195.334" r="8.338"/>
<g>
</g>
<g>
</g>
<g>
</g>
<g>
</g>
<g>
</g>
<g>
</g>
<g>
</g>
<g>
</g>
<g>
</g>
<g>
</g>
<g>
</g>
<g>
</g>
<g>
</g>
<g>
</g>
<g>
</g>
</svg>
