<?xml version="1.0" encoding="iso-8859-1"?>
<!-- Generator: Adobe Illustrator 19.0.0, SVG Export Plug-In . SVG Version: 6.00 Build 0)  -->
<svg version="1.1" id="Capa_1" xmlns="http://www.w3.org/2000/svg" xmlns:xlink="http://www.w3.org/1999/xlink" x="0px" y="0px"
	 viewBox="0 0 512 512" style="enable-background:new 0 0 512 512;" xml:space="preserve">
<path style="fill:#12ADF6;" d="M511.999,255.279c0.094,34.346-6.572,67.134-18.766,97.092
	c-37.971,93.372-129.473,159.325-236.512,159.628C150.769,512.292,59.665,448.187,20.502,356.54
	C7.389,325.893,0.106,292.164,0.001,256.731c-0.084-28.264,4.42-55.473,12.81-80.917C46.374,73.969,142.148,0.325,255.269,0.001
	c106.496-0.303,197.997,64.48,236.836,156.891C504.821,187.162,511.895,220.39,511.999,255.279z"/>
<path style="fill:#FDFDFD;" d="M492.104,156.892c-1.703-0.397-3.448-0.711-5.235-0.951c-12.11-1.609-24.294-0.125-36.435,0.146
	c-6.541,0.136-13.019,1.432-18.578,4.744c-5.642,3.344-11.442,3.793-17.648,3.699c-10.313-0.167-19.937,2.57-28.526,8.276
	c-2.644,1.755-4.221,1.463-6.646-0.251c-9.498-6.719-20.24-10.094-31.807-9.31c-20.24,1.369-40.521,1.337-60.771,2.09
	c-2.591,0.094-4.535-0.616-6.541-2.205c-6.343-5.015-13.615-8.119-21.493-9.874c-9.634-2.142-19.101-0.24-28.63,0.899
	c-13.563,1.62-26.781,4.023-37.48,13.49c-1.149,1.024-2.403,1.014-3.783,0.825c-10.919-1.546-21.88-1.264-32.82-0.46
	c-14.608,1.087-29.1,2.79-40.97,12.727c-2.466,2.048-3.082-0.428-4.075-1.599c-15.579-18.39-39.319-24.315-61.523-15.214
	c-1.985,0.815-3.96,1.254-6.081,1.442c-11.588,1.066-21.671,4.545-30.25,10.449c-8.39,25.443-12.894,52.652-12.81,80.917
	c0.104,35.432,7.387,69.161,20.501,99.808c12.466,2.769,26.143,1.076,38.619-6.102c5.736-3.312,11.807-4.117,18.578-0.616
	c20.856,10.762,42.862,11.713,64.522,3.406c9.425-3.615,18.913-5.245,28.588-7.001c4.274-0.773,8.004-0.125,12.11,1.442
	c24.471,9.352,46.832,5.548,66.612-11.849c2.581-2.278,4.483-4.974,8.746-3.511c3.26,1.118,6.959,0.063,10.073,2.853
	c6.854,6.123,15.005,10.418,24.106,11.358c17.648,1.808,35.359,1.181,52.955-1.181c1.829-0.24,3.417-0.491,5.224,0.23
	c17.659,7.064,35.6,6.729,53.958,2.863c6.447-1.358,13.354-1.515,19.759,2.685c12.309,8.056,25.987,10.031,40.134,6.134
	c7.022-1.933,14.075-2.884,21.243-3.594c2.57-0.261,5.078-0.69,7.502-1.285c12.194-29.957,18.86-62.746,18.766-97.092
	C511.895,220.39,504.821,187.162,492.104,156.892z"/>
<path style="fill:#FEB903;" d="M9.318,287.624c-0.017-5.852-0.055-11.706-0.042-17.558c0.007-3.367,0.572-6.807,2.561-9.426
	c2.729-3.592,2.569-7.15,1.94-11.276c-1.708-11.194-0.246-22.223,3.58-32.786c5.356-14.792,17.995-22.745,33.678-21.662
	c2.21,0.153,3.938-0.211,5.834-1.474c7.66-5.108,15.8-5.492,23.876-1.192c8.129,4.328,11.911,11.503,12.282,20.612
	c0.115,2.822-1.51,6.48,0.409,8.222c1.698,1.541,4.965-1.463,7.589-1.08c9.191,1.34,16.37-3.706,24.084-7.151
	c1.209-0.54,1.878-1.359,2.511-2.406c4.083-6.749,10.104-10.466,17.904-11.449c17.054-2.148,34.084-3.424,50.966,1.234
	c2.297,0.634,4.809,2.424,6.717,1.888c1.412-0.397,1.862-3.789,2.989-5.7c4.02-6.813,10.162-10.42,17.896-11.497
	c6.689-0.932,13.372-1.922,20.071-2.772c10.942-1.388,19.868,3.421,24.997,13.687c1.289,2.58,2.086,3.813,5.059,1.803
	c3.296-2.226,7.309-2.536,11.255-2.661c21.012-0.672,42.041-0.607,63.035-2.089c10.08-0.712,19.147,5.953,22.504,15.484
	c1.401,3.98,7.229,5.934,10.522,3.232c3.43-2.814,6.999-5.14,11.398-6.023c1.482-0.298,2.109-1.581,2.954-2.617
	c4.759-5.833,10.928-8.738,18.438-8.818c2.854-0.03,5.708-0.031,8.562-0.034c6.789-0.007,13.551,0.851,19.058-5.119
	c2.691-2.917,7.281-3.303,11.418-3.396c8.708-0.196,17.416-0.525,26.125-0.557c10.565-0.04,19.546,6.438,22.681,16.054
	c3.166,9.707-0.26,20.03-8.993,26.194c-2.001,1.413-2.573,2.839-2.544,5.164c0.181,14.718,0.242,29.439,0.249,44.159
	c0.001,2.419,0.584,4.013,2.764,5.535c8.238,5.751,11.691,15.232,9.332,24.472c-2.437,9.542-9.632,16.134-19.577,17.367
	c-9.225,1.144-18.373,2.244-27.42,4.77c-8.304,2.319-15.777-0.771-21.317-7.443c-1.752-2.111-3.497-2.719-6.09-2.79
	c-7.909-0.218-15.948,1.053-23.665-1.822c-1.241-0.463-2.273,0.476-3.387,0.879c-17.555,6.336-34.408,6.108-49.872-5.665
	c-1.686-1.284-2.591-1.252-4.146,0.059c-4.425,3.729-9.647,5.185-15.43,5.227c-9.46,0.069-18.918,0.465-28.379,0.594
	c-11.282,0.154-19.432-5.126-23.423-15.502c-1.051-2.732-1.921-2.483-4.106-1.462c-8.464,3.953-16.577,3.161-24.224-2.294
	c-3.643-2.599-12.54-0.2-14.3,3.786c-9.247,20.934-33.562,27.084-51.862,13.039c-1.473-1.131-2.594-1.249-4.415-0.931
	c-9.755,1.7-19.536,4.005-29.359,4.277c-6.033,0.167-10.663,1.746-15.549,4.767c-13.29,8.216-42.69,8.021-56.059-8.335
	c-1.539-1.883-2.753-2.029-4.858-0.894c-7.021,3.788-14.601,5.437-22.568,4.906c-1.89-0.126-3.062,0.525-4.306,1.769
	c-7.351,7.353-16.1,9.274-25.615,5.37c-9.592-3.936-14.08-11.751-14.351-21.987c-0.147-5.554-0.055-11.113-0.071-16.67
	C8.861,287.625,9.09,287.624,9.318,287.624z"/>
<g>
	<path style="fill:#FDFDFD;" d="M422.385,256.369c-0.028-9.758-0.248-19.522,0.013-29.273c0.103-3.881-1.185-5.086-4.833-4.603
		c-1.463,0.193-3.016,0.069-4.479-0.185c-2.763-0.479-4.235-2.383-4.167-5.066c0.068-2.684,1.7-4.812,4.403-4.878
		c9.302-0.227,18.614-0.243,27.917-0.087c2.702,0.046,4.345,1.996,4.447,4.778c0.11,3.001-1.485,4.753-4.432,5.28
		c-0.147,0.026-0.298,0.039-0.445,0.067c-2.583,0.493-6.222-1.26-7.568,1.052c-1.256,2.159-0.499,5.523-0.521,8.358
		c-0.048,6.154,0.076,12.313-0.082,18.464c-0.071,2.785,0.726,3.749,3.611,3.202c7.514-1.424,15.053-2.734,22.611-3.888
		c2.697-0.412,3.744-1.377,3.647-4.285c-0.308-9.301-0.434-18.612-0.344-27.916c0.03-3.124-1.145-3.902-3.937-3.586
		c-1.63,0.185-3.311,0.166-4.948,0.01c-3.002-0.286-4.677-2.183-4.681-5.068c-0.003-2.65,1.48-4.801,4.298-4.917
		c9.146-0.375,18.301-0.632,27.454-0.663c2.884-0.009,4.719,1.978,4.785,4.962c0.067,2.998-1.74,4.539-4.577,5.244
		c-2.635,0.655-6.379-1.327-7.75,1.487c-1.124,2.31-0.282,5.591-0.263,8.442c0.154,22.669,0.391,45.338,0.409,68.006
		c0.003,3.842,0.456,6.013,5.059,4.803c2.539-0.668,5.151-0.26,6.789,2.276c2.232,3.457,0.008,7.336-4.666,7.954
		c-5.499,0.727-11.021,1.284-16.532,1.916c-3.303,0.378-6.44,1.363-9.54,2.525c-2.514,0.943-4.895,0.722-6.178-1.915
		c-1.271-2.611-0.553-4.976,1.789-6.769c2.854-2.186,6.294-2.885,9.684-3.319c2.912-0.373,3.61-1.575,3.545-4.377
		c-0.239-10.355-0.297-20.716-0.217-31.074c0.023-3.027-0.845-3.987-3.9-3.407c-7.366,1.396-14.764,2.644-22.175,3.781
		c-2.795,0.429-4.099,1.392-3.959,4.552c0.273,6.143,0.233,12.313-0.003,18.459c-0.12,3.13,1.159,3.949,3.947,3.756
		c1.79-0.123,3.617-0.097,5.396,0.122c2.774,0.342,4.382,2.18,4.413,4.852c0.031,2.866-1.559,5.081-4.586,5.105
		c-9.454,0.074-18.915,0.019-28.365-0.272c-2.838-0.088-4.64-2.078-4.615-5.122c0.025-3.064,1.912-4.551,4.735-5.083
		c0.293-0.055,0.599-0.041,0.898-0.064c7.937-0.606,7.937-0.606,7.915-8.418c-0.024-8.407-0.048-16.814-0.071-25.222
		C422.337,256.369,422.361,256.369,422.385,256.369z"/>
	<path style="fill:#FDFDFD;" d="M166.811,215.082c8.515,0.032,14.837,0.158,21.004,1.57c6.695,1.533,13.472,3.608,15.882,10.957
		c2.484,7.569-1.115,14.062-6.164,19.161c-3.244,3.276-3.393,5.205-1.227,9.107c3.553,6.402,3.745,13.822,4.088,21.02
		c0.201,4.21,0.549,8.387,1.377,12.508c0.533,2.649,1.815,4.85,4.895,5.075c2.92,0.212,4.231-1.796,5.245-4.105
		c0.061-0.137,0.125-0.273,0.185-0.411c2.356-5.513,4.572-7.064,7.885-5.514c3.24,1.515,3.686,4.499,1.464,9.79
		c-3.147,7.493-8.726,11.135-16.022,10.463c-7.197-0.665-12.001-5.373-13.784-13.327c-1.816-8.099-1.076-16.465-2.667-24.577
		c-0.401-2.047-0.964-4.079-1.655-6.047c-1.444-4.109-4.416-5.354-8.562-4.403c-12.114,2.779-12.111,2.76-11.881,15.206
		c0.08,4.351,0.301,8.711,0.103,13.052c-0.141,3.087,1.178,3.61,3.748,3.047c1.316-0.288,2.668-0.638,3.994-0.603
		c2.651,0.07,4.668,1.291,5.181,4.071c0.537,2.911-0.602,5.358-3.528,5.88c-8.553,1.526-17.15,2.877-25.775,3.909
		c-2.789,0.333-4.813-1.586-5.079-4.623c-0.266-3.035,1.41-4.747,4.188-5.544c6.895-1.978,6.904-1.975,6.869-9.027
		c-0.03-6.152-0.134-12.306-0.09-18.458c0.014-1.953-0.377-2.989-2.648-3.119c-3.139-0.18-4.982-2.051-4.844-5.312
		c0.129-3.023,1.997-4.758,4.906-4.811c2.447-0.045,2.522-1.302,2.495-3.126c-0.084-5.852-0.164-11.707-0.051-17.557
		c0.046-2.376-0.667-3.342-3.074-2.806c-1.169,0.26-2.364,0.415-3.553,0.582c-3.534,0.497-6.481-0.257-7.023-4.325
		c-0.546-4.103,2.202-5.625,5.693-5.99C155.246,216.074,162.123,215.51,166.811,215.082z M166.568,235.643c0.03,0,0.062,0,0.092,0
		c0.008,3.003,0.1,6.009-0.001,9.009c-0.078,2.328,0.965,2.962,3.024,2.363c4.46-1.3,8.876-2.766,13.374-3.914
		c5.142-1.313,8.062-4.862,10.292-9.326c1.552-3.106,0.621-5.152-2.421-6.487c-4.064-1.784-8.423-2.145-12.749-2.521
		c-11.641-1.012-11.645-0.964-11.613,10.427C166.567,235.342,166.567,235.493,166.568,235.643z"/>
	<path style="fill:#FDFDFD;" d="M64.602,220.729c-0.008-2.912-0.091-5.093-0.003-7.267c0.138-3.396,1.476-5.997,5.319-5.871
		c3.777,0.123,5.143,2.683,5.018,6.132c-0.367,10.055-0.806,20.108-1.206,30.162c-0.123,3.111-1.456,5.278-4.762,5.443
		c-3.498,0.174-5.213-1.862-5.466-5.211c-0.558-7.391-3.437-13.556-9.206-18.373c-5.485-4.58-10.06-3.297-11.383,3.561
		c-1.05,5.446-1.908,10.953-1.243,16.555c0.549,4.621,2.97,7.322,7.667,8.05c5.04,0.781,10.058,1.7,14.885,3.449
		c12.5,4.531,18.524,13.674,16.144,24.56c-2.555,11.683-14.904,20.466-26.994,19.193c-4.523-0.476-8.918-1.55-12.848-3.848
		c-3.45-2.018-4.036-0.665-3.72,2.557c0.176,1.788,0.245,3.609,0.118,5.399c-0.212,2.978-1.896,4.739-4.928,4.755
		c-2.981,0.017-4.978-1.651-5.135-4.595c-0.615-11.562-0.106-23.122,0.45-34.674c0.145-3.011,2.149-4.74,5.067-4.645
		c3.395,0.111,5.117,2.271,5.047,5.661c-0.158,7.648,3.191,13.169,9.78,16.975c6.74,3.893,15.914,2.229,20.701-3.958
		c4.327-5.59,3.108-12.146-3.027-15.71c-4.488-2.608-9.523-3.597-14.56-4.434c-13.575-2.257-19.236-8.847-19.166-22.651
		c0.028-5.569,0.685-11.107,2.161-16.477c3.394-12.353,14.678-16.48,25.326-9.333C60.457,217.353,62.122,218.806,64.602,220.729z"/>
	<path style="fill:#FDFDFD;" d="M227.745,280.096c-4.195-0.218-8.39-0.424-12.585-0.659c-3.404-0.19-5.442-2.052-5.274-5.415
		c0.157-3.139,2.289-4.787,5.47-4.74c3.75,0.055,7.503,0.142,11.244,0.381c2.286,0.146,3.418-0.355,3.911-2.959
		c3.295-17.373,6.763-34.716,10.281-52.045c0.59-2.908-0.491-3.388-3.003-2.96c-3.398,0.578-6.82,1.021-10.239,1.469
		c-3.273,0.428-5.779-0.709-6.35-4.136c-0.614-3.687,1.545-5.596,5.004-6.118c6.078-0.915,12.169-1.745,18.253-2.615
		c5.757-0.822,7.201-0.037,9.565,5.64c7.717,18.531,15.476,37.047,22.991,55.659c1.471,3.644,2.849,5.305,6.587,2.718
		c1.208-0.836,2.691-1.334,4.111-1.793c3.001-0.97,5.457-0.125,6.614,2.879c1.143,2.966,0.037,5.335-2.878,6.63
		c-3.558,1.581-7.226,2.915-10.764,4.537c-3.949,1.81-7.819,3.749-10.939,6.949c-2.207,2.263-4.926,2.425-7.213,0.22
		c-2.48-2.39-2.079-5.116,0.109-7.594c0.689-0.78,1.615-1.347,2.315-2.119c1.333-1.469,4.78-1.53,4.184-3.982
		c-0.907-3.725-2.72-7.258-4.415-10.744c-0.515-1.06-1.936-0.229-2.928-0.066c-5.768,0.949-11.52,2.004-17.301,2.854
		c-2.001,0.294-3.623,0.696-3.422,3.119c0.164,1.977-2.415,4.552,1.609,5.765c2.402,0.724,3.121,3.142,2.507,5.599
		c-0.612,2.447-2.261,3.866-4.848,3.903c-4.198,0.059-8.397,0.037-12.595,0.048C227.745,280.379,227.745,280.238,227.745,280.096z
		 M250.21,225.464c-0.292,0.033-0.583,0.067-0.875,0.1c-1.705,8.487-3.434,16.969-5.092,25.465c-0.236,1.208-1.551,3.33,1.422,2.896
		c4.284-0.624,8.533-1.486,12.803-2.21c1.395-0.236,2.196-0.696,1.528-2.318C256.715,241.428,253.469,233.444,250.21,225.464z"/>
	<path style="fill:#FDFDFD;" d="M317.344,212.602c9.891-0.542,19.782-1.065,29.671-1.636c5.4-0.312,7.513,1.648,7.338,7.01
		c-0.185,5.699-0.476,11.396-0.607,17.096c-0.077,3.371-1.575,5.638-4.956,5.781c-3.517,0.149-5.05-2.261-5.147-5.529
		c-0.108-3.595-0.192-7.208,0.032-10.792c0.157-2.509-0.73-3.049-3.065-2.868c-4.935,0.381-9.89,0.621-14.839,0.669
		c-2.531,0.025-3.371,0.918-3.347,3.437c0.194,20.114,0.319,40.228,0.366,60.344c0.005,2.448,0.926,3.108,3.198,2.934
		c2.389-0.182,4.808-0.185,7.199-0.039c3.022,0.185,4.691,2.023,4.705,4.982c0.015,2.967-1.656,4.912-4.67,5.008
		c-10.351,0.329-20.706,0.588-31.062,0.674c-3.068,0.025-5.117-1.756-5.194-5.035c-0.078-3.314,1.979-4.814,5.009-5.264
		c0.59-0.088,1.198-0.061,1.798-0.083c8.673-0.308,8.679-0.308,8.646-9.178c-0.065-17.564-0.259-35.128-0.11-52.691
		c0.033-3.866-1.149-4.865-4.804-4.544c-4.476,0.394-8.999,0.357-13.5,0.313c-2.346-0.022-3.177,0.63-2.728,3.111
		c0.908,5.015,1.458,10.096,2.332,15.119c0.616,3.539-0.435,6.175-4.028,6.791c-3.636,0.624-5.514-1.695-6.068-5.118
		c-1.22-7.55-2.468-15.099-3.584-22.665c-0.758-5.137,1.018-7.345,6.335-7.437c10.354-0.18,20.713-0.102,31.07-0.133
		C317.34,212.775,317.342,212.689,317.344,212.602z"/>
	<path style="fill:#FDFDFD;" d="M392.766,236.911c-0.009-3.283-0.112-5.762,0-8.231c0.148-3.263,1.692-5.579,5.19-5.544
		c3.464,0.033,5.085,2.301,5.128,5.596c0.091,6.903,0.05,13.806,0.089,20.71c0.015,2.685-1.054,4.706-3.629,5.613
		c-2.676,0.942-4.655-0.298-6.164-2.448c-3.723-5.307-8.351-9.383-14.755-11.161c-6.596-1.832-10.2-0.183-11.943,6.431
		c-3.025,11.48-2.565,23.223-1.155,34.851c0.704,5.804,4.851,9.127,10.666,9.985c2.064,0.304,4.184,0.343,6.277,0.316
		c8.914-0.116,13.807-4.684,14.578-13.637c0.18-2.087,0.05-4.198,0.075-6.299c0.039-3.212,1.712-5.194,4.845-5.389
		c2.914-0.181,4.87,1.448,5.254,4.445c2.274,17.746-8.04,31.746-24.657,31.278c-15.501-0.437-25.15-5.816-27.09-18.794
		c-1.988-13.302-2.434-26.978,1.48-40.165c3.498-11.788,12.239-16.286,24.128-13.063
		C384.974,232.46,388.602,234.189,392.766,236.911z"/>
	<path style="fill:#FDFDFD;" d="M125.639,243.919c-0.009-3.421-0.11-6.089,0-8.749c0.123-2.997,1.863-4.814,4.798-4.923
		c3.176-0.118,5.173,1.71,5.242,4.911c0.159,7.35,0.113,14.704,0.12,22.056c0.003,2.569-1.333,4.289-3.728,5.026
		c-2.489,0.766-4.383-0.345-5.813-2.35c-3.653-5.122-8.039-9.23-14.267-11.104c-7.359-2.216-10.786-0.654-12.724,6.858
		c-2.89,11.208-2.067,22.684-1.075,34.005c0.494,5.649,4.658,9.2,10.52,10.219c3.593,0.625,7.198,0.56,10.752-0.022
		c5.112-0.836,8.808-5.029,9.968-10.89c0.676-3.416,0.417-6.873,0.523-10.317c0.087-2.777,1.766-4.501,4.466-4.822
		c2.726-0.325,4.63,1.112,5.477,3.688c3.4,10.337-2.759,26.23-12.912,30.45c-16.598,6.899-39.489,1.961-39.748-23.301
		c-0.089-8.697-0.495-17.406,0.748-26.065c2.83-19.699,16.221-26.402,33.718-16.877C122.746,242.279,123.77,242.87,125.639,243.919z
		"/>
</g>
<g>
</g>
<g>
</g>
<g>
</g>
<g>
</g>
<g>
</g>
<g>
</g>
<g>
</g>
<g>
</g>
<g>
</g>
<g>
</g>
<g>
</g>
<g>
</g>
<g>
</g>
<g>
</g>
<g>
</g>
</svg>
