<?xml version="1.0" encoding="iso-8859-1"?>
<!-- Generator: Adobe Illustrator 19.0.0, SVG Export Plug-In . SVG Version: 6.00 Build 0)  -->
<svg version="1.1" id="Capa_1" xmlns="http://www.w3.org/2000/svg" xmlns:xlink="http://www.w3.org/1999/xlink" x="0px" y="0px"
	 viewBox="0 0 512 512" style="enable-background:new 0 0 512 512;" xml:space="preserve">
<path style="fill:#F2F2F2;" d="M512,256c0,36.895-7.805,71.973-21.859,103.664c-14.19,32.016-34.764,60.573-60.092,84.052
	C384.366,486.097,323.218,512,256,512c-68.033,0-129.849-26.53-175.7-69.831c-24.576-23.186-44.565-51.2-58.441-82.526l-0.01-0.01
	C7.805,327.952,0,292.885,0,256C0,114.615,114.615,0,256,0S512,114.615,512,256z"/>
<g>
	<path style="fill:#EF1616;" d="M111.7,234.145c0,0,123.234,23.388,115.138,140.326c0,0,36.881-62.067-62.967-153.818
		l100.054-116.731l56.462-65.872l-26.086-13.493l-69.353,79.608L111.7,234.145z"/>
	<path style="fill:#EF1616;" d="M213.661,369.392c-4.19,66.832-74.877,74.961-113.371,74.971c-7.168-0.69-13.814-1.421-19.989-2.194
		c-24.576-23.186-44.565-51.2-58.441-82.526l-0.01-0.01c-1.839-22.173-2.978-49.267-2.978-82.359
		c0-54.774,3.124-93.111,7.387-119.933c3.615-22.737,21.577-40.5,44.387-43.687c22.862-3.197,53.102-6.008,93.059-7.774
		l56.842-65.128h25.182l-55.056,64.146L44.231,275.519C129.693,255.739,217.84,302.508,213.661,369.392z"/>
	<path style="fill:#EF1616;" d="M493.129,277.274c0,33.113-1.139,60.207-2.988,82.39c-14.19,32.016-34.764,60.573-60.092,84.052
		c-38.327,4.012-92.285,6.917-168.145,6.917c-37.083,0-68.911-0.69-96.246-1.87c0.773-0.157,49.319-9.571,77.625-77.636
		c17.575-42.266,77.887-171.771,121.637-265.028c30.427,1.442,55.056,3.49,74.971,5.841c23.144,2.738,41.723,20.396,45.516,43.395
		C489.838,182.241,493.129,221.121,493.129,277.274z"/>
</g>
<g>
</g>
<g>
</g>
<g>
</g>
<g>
</g>
<g>
</g>
<g>
</g>
<g>
</g>
<g>
</g>
<g>
</g>
<g>
</g>
<g>
</g>
<g>
</g>
<g>
</g>
<g>
</g>
<g>
</g>
</svg>
