<?xml version="1.0" encoding="iso-8859-1"?>
<!-- Generator: Adobe Illustrator 19.0.0, SVG Export Plug-In . SVG Version: 6.00 Build 0)  -->
<svg version="1.1" id="Capa_1" xmlns="http://www.w3.org/2000/svg" xmlns:xlink="http://www.w3.org/1999/xlink" x="0px" y="0px"
	 viewBox="0 0 512 512" style="enable-background:new 0 0 512 512;" xml:space="preserve">
<path style="fill:#F2F2F2;" d="M512,255.791V256c0,25.851-3.835,50.813-10.971,74.344c-1.599,5.287-3.375,10.512-5.308,15.642
	C459.306,442.984,365.714,512,256,512c-111.71,0-206.712-71.555-241.664-171.332c-4.263-12.184-7.638-24.795-10.041-37.742
	C1.473,287.713,0,272.029,0,256c0-20.95,2.518-41.315,7.272-60.813C34.555,83.163,135.565,0,256,0
	c107.384,0,199.335,66.132,237.349,159.88c7.44,18.359,12.81,37.784,15.83,57.971v0.01C511.028,230.243,511.99,242.897,512,255.791z
	"/>
<path style="fill:#572E94;" d="M509.179,217.851c-8.067-8.265-18.61-15.36-31.744-20.72c-19.299-7.879-41.2-5.528-64.46,3.291
	c-53.979-75.034-129.421-52.025-171.259-10.25c17.899-19.477,43.269-44.638,85.253-63.049
	c43.729-19.184,120.707-10.198,166.379,32.758C500.788,178.239,506.159,197.663,509.179,217.851z"/>
<path style="fill:#5C55A9;" d="M512,255.791V256c0,25.851-3.835,50.813-10.971,74.344c-10.888,10.543-24.754,19.446-41.357,25.61
	c-25.715,9.561-53.614,10.073-81.178,4.88c42.904-22.737,62.109-77.688,50.698-124.667c-3.093-12.779-8.453-24.963-16.217-35.746
	c23.259-8.819,45.16-11.17,64.46-3.291c13.134,5.36,23.677,12.455,31.744,20.72v0.01C511.028,230.243,511.99,242.897,512,255.791z"
	/>
<path style="fill:#575DAF;" d="M501.029,330.344c-1.599,5.287-3.375,10.512-5.308,15.642
	c-45.683,48.859-126.433,61.231-183.38,35.046c-15.914-7.314-28.787-15.663-39.33-24.628v-0.01
	c43.175,20.24,78.89,18.536,105.482,4.441c27.564,5.193,55.463,4.681,81.178-4.88C476.275,349.79,490.141,340.887,501.029,330.344z"
	/>
<path style="fill:#5155AA;" d="M412.974,200.425c-48.786,18.463-103.581,65.358-153.046,105.942
	c-11.682-8.631-21.891-17.398-30.135-25.642c-2.111-2.111-4.305-4.211-6.583-6.311c-5.611-16.812-10.25-32.12-17.993-43.708
	c7.596-9.153,13.437-16.384,17.262-19.989c5.538-5.224,11.703-12.361,19.174-20.48c0.021-0.021,0.042-0.042,0.063-0.063
	C283.553,148.4,358.995,125.391,412.974,200.425z"/>
<path style="fill:#547BC4;" d="M378.492,360.838c-26.593,14.096-62.307,15.799-105.482-4.441v0.01
	c-13.281-11.295-22.873-23.594-30.208-36.112c5.622-4.524,11.337-9.185,17.126-13.928
	C291.839,329.971,334.732,352.593,378.492,360.838z"/>
<path style="fill:#376DB7;" d="M259.928,306.367c-5.789,4.744-11.504,9.404-17.126,13.928c-9.07-15.454-14.702-31.232-19.592-45.881
	c2.278,2.1,4.472,4.2,6.583,6.311C238.037,288.97,248.246,297.736,259.928,306.367z"/>
<path style="fill:#209CDC;" d="M223.21,274.414c4.89,14.649,10.522,30.427,19.592,45.881
	c-25.161,20.219-48.494,37.595-68.389,47.156c-23.009,11.055-51.419,15.6-79.37,12.288c-31.619-12.413-53.927-35.474-62.84-60.688
	c6.154,2.09,12.81,3.615,19.958,4.514c56.466,7.053,105.785-38.808,137.644-74.794C202.061,256.557,213.398,265.386,223.21,274.414z
	"/>
<path style="fill:#3C66B4;" d="M205.217,230.706c7.743,11.588,12.382,26.896,17.993,43.708
	c-9.812-9.028-21.149-17.857-33.405-25.642C195.52,242.305,200.682,236.161,205.217,230.706z"/>
<path style="fill:#69C0F1;" d="M205.218,230.703c-4.535,5.454-9.697,11.598-15.412,18.066c-5.622-3.574-11.442-6.917-17.387-9.958
	c-42.297-21.64-91.439-27.961-126.527,10.564c-18.631,20.449-22.058,46.017-13.688,69.674c-11.013-3.73-20.386-9.258-27.909-16.123
	C1.473,287.713,0,272.029,0,256c0-20.95,2.518-41.315,7.272-60.813c13.113-13.584,29.853-23.259,46.979-28.359
	c21.556-6.416,44.972-6.196,67.981,0.846c0.01,0.01,0.031,0.01,0.042,0.021c29.414,9.007,58.138,29.142,81.398,60.782
	C204.204,229.198,204.727,229.94,205.218,230.703z"/>
<g>
	<path style="fill:#0097D9;" d="M95.044,379.737c-29.821-3.542-59.11-16.018-80.708-39.069
		c-4.263-12.184-7.638-24.795-10.041-37.742c7.523,6.865,16.896,12.392,27.909,16.123C41.117,344.263,63.425,367.323,95.044,379.737
		z"/>
	<path style="fill:#0097D9;" d="M205.217,230.706c-4.535,5.454-9.697,11.598-15.412,18.066c-5.622-3.574-11.442-6.917-17.387-9.958
		c0-45.025-21.368-58.525-50.145-71.116c29.414,9.007,58.138,29.142,81.398,60.782C204.203,229.201,204.726,229.943,205.217,230.706
		z"/>
</g>
<path style="fill:#4E2E8B;" d="M512,255.791c-5.831-5.099-12.758-9.759-20.982-13.73c-27.596-13.302-47.982-11.504-61.827-5.893
	c-3.093-12.779-8.453-24.963-16.217-35.746c23.259-8.819,45.16-11.17,64.46-3.291c13.134,5.36,23.677,12.455,31.744,20.72
	C511.028,230.233,511.99,242.897,512,255.791z"/>
<g>
</g>
<g>
</g>
<g>
</g>
<g>
</g>
<g>
</g>
<g>
</g>
<g>
</g>
<g>
</g>
<g>
</g>
<g>
</g>
<g>
</g>
<g>
</g>
<g>
</g>
<g>
</g>
<g>
</g>
</svg>
