<?xml version="1.0" encoding="iso-8859-1"?>
<!-- Generator: Adobe Illustrator 19.0.0, SVG Export Plug-In . SVG Version: 6.00 Build 0)  -->
<svg version="1.1" id="Capa_1" xmlns="http://www.w3.org/2000/svg" xmlns:xlink="http://www.w3.org/1999/xlink" x="0px" y="0px"
	 viewBox="0 0 512 512" style="enable-background:new 0 0 512 512;" xml:space="preserve">
<path style="fill:#5C5560;" d="M512,256c0,6.51-0.24,12.957-0.721,19.341c-0.272,3.678-0.627,7.325-1.055,10.951
	c-0.679,5.778-1.557,11.504-2.612,17.157C485.366,422.16,381.168,512,256,512S26.645,422.17,4.389,303.459
	C1.505,288.078,0,272.217,0,256c0-5.82,0.199-11.598,0.585-17.324c0.24-3.657,0.554-7.293,0.961-10.909
	c0.7-6.489,1.661-12.894,2.842-19.226C26.645,89.83,130.832,0,256,0s229.366,89.84,251.611,208.551
	C510.495,223.932,512,239.794,512,256z"/>
<path style="fill:#ED232E;" d="M512,256c0,6.51-0.24,12.957-0.721,19.341c-0.272,3.678-0.627,7.325-1.055,10.951
	c-0.679,5.778-1.557,11.504-2.612,17.157C461.03,337.523,365.85,360.866,256,360.866S50.97,337.523,4.389,303.459
	C1.505,288.078,0,272.217,0,256c0-5.82,0.199-11.598,0.585-17.324c0.24-3.657,0.554-7.293,0.961-10.909
	c0.7-6.489,1.661-12.894,2.842-19.226C50.97,174.477,146.15,151.134,256,151.134s205.03,23.343,251.611,57.417
	C510.495,223.932,512,239.794,512,256z"/>
<g>
	<path style="fill:#FFFFFF;" d="M85.985,229.146H42.611v50.26h43.374c23.949,0,43.363-11.254,43.363-25.13
		C129.348,240.4,109.934,229.146,85.985,229.146z M81.241,272.436H58.629v-36.31h22.612c17.304,0,31.326,8.129,31.326,18.15
		C112.567,264.307,98.544,272.436,81.241,272.436z"/>
	<path style="fill:#FFFFFF;" d="M185.642,271.952c-21.057,0-33.262-6.793-35.322-15.648h41.034v-7.093h-40.529
		c3.108-8.049,15.066-14.027,34.817-14.027c7.259,0,15.399,0.809,23.156,2.225l1.793-8.17c-9.101-1.361-18.329-2.116-26.737-2.116
		c-33.351,0-51.266,11.842-51.266,26.444c0,14.602,17.916,26.444,51.266,26.444c8.767,0,17.563-0.584,25.946-1.653l-1.344-8.249
		C201.247,271.29,193.429,271.952,185.642,271.952z"/>
	<path style="fill:#FFFFFF;" d="M315.371,228.749h-33.635v51.064h16.206v-20.271h17.429c26.749,0,33.635-6.886,33.635-15.391
		S341.107,228.749,315.371,228.749z M314.744,252.113h-16.802v-15.935h16.802c13.312,0,17.408,3.563,17.408,7.973
		C332.152,248.55,328.579,252.113,314.744,252.113z"/>
	<rect x="443.235" y="228.749" style="fill:#FFFFFF;" width="16.212" height="51.065"/>
	<polygon style="fill:#FFFFFF;" points="232.895,272.313 232.895,228.746 216.685,228.746 216.685,279.811 232.895,279.811 
		275.855,279.811 275.855,272.313 	"/>
	<polygon style="fill:#FFFFFF;" points="417.096,228.746 417.096,250.023 370.894,250.023 370.894,228.746 354.682,228.746 
		354.682,279.811 370.894,279.811 370.894,257.52 417.096,257.52 417.096,279.811 433.308,279.811 433.308,228.746 	"/>
	<path style="fill:#FFFFFF;" d="M511.279,275.341c-0.272,3.678-0.627,7.325-1.055,10.951
		c-37.303,40.511-148.417,61.691-253.618,61.764v-25.684C342.852,322.372,475.261,316.709,511.279,275.341z"/>
	<path style="fill:#FFFFFF;" d="M256.261,164.759v25.694c-87.061,0-221.205,5.768-255.676,48.222
		c0.24-3.657,0.554-7.293,0.961-10.909C37.689,186.452,149.985,164.843,256.261,164.759z"/>
</g>
<g>
</g>
<g>
</g>
<g>
</g>
<g>
</g>
<g>
</g>
<g>
</g>
<g>
</g>
<g>
</g>
<g>
</g>
<g>
</g>
<g>
</g>
<g>
</g>
<g>
</g>
<g>
</g>
<g>
</g>
</svg>
