<?xml version="1.0" encoding="iso-8859-1"?>
<!-- Generator: Adobe Illustrator 19.0.0, SVG Export Plug-In . SVG Version: 6.00 Build 0)  -->
<svg version="1.1" id="Capa_1" xmlns="http://www.w3.org/2000/svg" xmlns:xlink="http://www.w3.org/1999/xlink" x="0px" y="0px"
	 viewBox="0 0 512 512" style="enable-background:new 0 0 512 512;" xml:space="preserve">
<path style="fill:#F2F2F2;" d="M512,256c0,87.792-44.189,165.261-111.543,211.372c-2.738,1.881-5.528,3.709-8.349,5.486
	C352.684,497.654,306.019,512,256,512c-47.95,0-92.818-13.176-131.176-36.122c-3.176-1.891-6.311-3.856-9.394-5.883
	C45.902,424.218,0,345.475,0,256C0,114.615,114.615,0,256,0S512,114.615,512,256z"/>
<g>
	<path style="fill:#6399D4;" d="M420.091,174.401c1.392-0.481,1.822-1.296,1.87-2.591c0.239-3.548,0.528-7.146,0.863-10.695
		c0.385-4.844,0.816-9.688,1.248-14.821c-0.385,0.095-0.624,0.143-0.815,0.191c-28.346,8.299-58.66,16.068-87.006,24.317
		c-1.44,0.433-0.096,2.687,0.479,3.694c4.461,7.818,9.21,15.013,13.573,22.879c0.385,0.671,0.72,1.006,1.199,1.102
		c0.239,0,1.007-0.624,1.296-0.72C375.198,189.939,397.644,182.122,420.091,174.401L420.091,174.401z"/>
	<path style="fill:#6399D4;" d="M117.732,208.789c4.509,0.624,8.968,1.248,13.477,1.87c6.907,0.958,13.815,1.869,20.721,2.829
		c0.124,0.037,0.254,0.053,0.385,0.048c0.815-0.048,0.958-0.767,1.15-1.487c1.811-6.089,3.665-12.165,5.563-18.226
		c0.433-1.294,0.048-1.678-1.2-2.014c-12.901-3.357-25.804-6.764-38.706-10.168c-12.901-3.405-25.804-6.812-38.658-10.217
		c-0.248-0.085-0.506-0.134-0.767-0.143c-0.385,0-0.624,0.096-0.768,0.385c-0.047,0.095-0.095,0.191-0.095,0.287
		c-0.06,0.203-0.092,0.413-0.096,0.624c-0.952,9.52-1.975,19.033-3.07,28.537c-0.143,1.2,0.096,1.726,1.007,1.968
		c0.191,0.048,0.43,0.095,0.72,0.143C90.824,205.097,104.301,206.919,117.732,208.789L117.732,208.789z"/>
</g>
<polyline style="fill:#DF352E;" points="217.926,369.658 213.919,381.422 211.613,387.764 212.171,395.654 204.406,408.23 
	208.443,416.59 208.443,425.526 220.261,429.562 222.567,424.95 239.863,415.725 254.564,410.248 258.512,406.59 266.96,409.384 
	276.761,407.654 317.407,423.22 319.136,414.86 319.136,403.618 322.306,397.276 311.743,373.015 "/>
<g>
	<path style="fill:#C18F69;" d="M136.261,60.785c1.076,1.393,2.155,2.789,3.225,4.186l0.022,0.027
		c0.29,0.363,0.972,1.211,2.126,1.211c0.423,0,0.846-0.118,1.258-0.35c1.089-0.591,2.252-1.131,3.376-1.651
		c2.227-1.031,4.53-2.098,6.618-3.716c8.033-6.366,15.091-12.415,21.577-18.495c1.156-1.057,2.425-2.514,2.124-4.467
		c0.004-0.17,0.015-0.343,0.026-0.522c0.06-0.936,0.159-2.504-1.443-3.383c-0.4-0.223-0.818-0.334-1.241-0.334
		c-0.926,0-1.567,0.532-1.95,0.851c-0.073,0.061-0.182,0.15-0.235,0.186c-0.471,0.226-0.892,0.495-1.3,0.757
		c-0.287,0.184-0.56,0.358-0.807,0.49c-2.159,1.124-4.312,2.32-6.394,3.475c-4.568,2.535-9.292,5.157-14.223,7.103
		c-1.686,0.658-3.385,1.343-5.029,2.004c-3.259,1.312-6.628,2.669-10.012,3.871c-0.038,0.011-0.125,0.031-0.184,0.046
		c-0.508,0.119-1.563,0.368-1.933,1.438c-0.252,0.729-0.057,1.506,0.579,2.308C133.695,57.464,134.999,59.153,136.261,60.785z"/>
	<path style="fill:#C18F69;" d="M159.144,61.315l-0.023-0.052l-0.026-0.05c-0.213-0.406-0.861-1.643-2.278-1.643
		c-0.588,0-1.117,0.227-1.551,0.434c-2.213,1.021-4.041,2.514-5.809,3.958c-1.425,1.165-2.772,2.265-4.266,3.093
		c-0.745,0.411-1.187,0.964-1.314,1.645c-0.194,1.039,0.453,1.812,0.84,2.275l0.037,0.044l10.804,12.389
		c0.1,0.117,0.213,0.328,0.305,0.497c0.062,0.115,0.119,0.219,0.17,0.304l0.684,1.134l1.223-0.509
		c0.209-0.087,0.365-0.147,0.484-0.193c0.236-0.091,0.441-0.17,0.657-0.309c0.86-0.526,1.708-1.051,2.556-1.577
		c0.845-0.523,1.691-1.048,2.547-1.572c0.662-0.392,1.651-1.314,0.988-3.141c-0.708-1.94-1.384-3.949-2.038-5.89
		C161.931,68.571,160.685,64.869,159.144,61.315z"/>
	<path style="fill:#C18F69;" d="M140.597,94.577c0.486-0.28,0.983-0.567,1.495-0.86l2.169-1.239l-2.085-1.378
		c-1.335-0.883-2.682-1.752-3.985-2.592c-4.475-2.888-8.702-5.615-12.658-8.955l-1.896-1.601l-0.589,2.411
		c-0.489,2-0.862,3.544-1.191,5.083c-0.16-0.061-0.446-0.421-0.66-0.691c-0.162-0.204-0.329-0.414-0.523-0.621l-0.037-0.039
		l-0.039-0.036c-0.391-0.363-0.544-0.721-0.54-0.816c0.764-1.658,1.335-3.391,1.889-5.066c0.349-1.055,0.678-2.052,1.051-3.032
		c0.103-0.258,0.232-0.58,0.353-0.859c0.256,0.184,0.53,0.394,0.694,0.519l0.026,0.02c0.153,0.115,0.274,0.207,0.378,0.31
		c5.418,5.621,11.198,9.937,17.669,13.196c2.073,1.052,3.699,1.521,5.269,1.521c1.842,0,3.54-0.672,5.188-2.055
		c0.031-0.019,0.083-0.048,0.123-0.07c0.115-0.064,0.253-0.14,0.4-0.242c1.115-0.674,1.496-1.922,0.928-3.072
		c-0.157-0.327-0.29-0.701-0.432-1.095c-0.379-1.062-0.809-2.264-1.903-3.222l-0.018-0.015c-3.458-2.937-6.753-6.184-9.938-9.323
		c-0.415-0.411-0.832-0.821-1.249-1.232c-4.119-4.057-8.378-8.254-11.433-13.218c-1.251-1.989-2.468-3.529-3.837-4.85
		c-1.155-1.102-2.625-1.708-4.14-1.708c-2.099,0-3.947,1.143-4.946,3.058c-1.38,2.562-3.042,5.041-4.649,7.437
		c-1.477,2.205-3.006,4.484-4.354,6.878c-1.239,2.223-2.655,4.421-4.026,6.547c-1.955,3.035-3.978,6.173-5.612,9.558
		c-0.708,1.481-0.732,2.901-0.082,4.463c0.399,0.971,0.833,1.927,1.253,2.853c0.759,1.673,1.486,3.278,2.02,4.942
		c-0.265-0.438-0.53-0.874-0.791-1.302c-1.36-2.236-2.766-4.547-4.03-6.909c-1.812-3.299-3.569-6.712-5.269-10.015
		c-4.066-7.898-8.27-16.066-13.634-23.48l-0.009-0.013c-0.023-0.045-0.061-0.137-0.088-0.2c-0.203-0.479-0.742-1.751-2.18-1.751
		c-0.373,0-0.758,0.097-1.144,0.29c-2.315,1.16-2.35,2.953-2.166,3.913c0.264,1.403,0.494,2.854,0.716,4.256
		c0.421,2.664,0.858,5.42,1.564,8.084c3.891,14.703,8.694,29.356,13.338,43.526c0.823,2.513,1.647,5.026,2.465,7.536
		c0.176,0.545,0.711,2.204,2.376,2.204l0,0c0.676,0,1.239-0.288,1.906-0.665c14.065-7.949,28.436-16.044,42.712-24.065
		C137.828,96.174,139.173,95.398,140.597,94.577z"/>
	<path style="fill:#C18F69;" d="M164.878,131.007c1.188-1.337,2.416-2.72,3.186-4.533c3.397-7.798,7.954-14.992,12.361-21.95
		c5.559-8.79,11.235-15.828,17.344-21.513c2.277-2.093,3.151-4.599,3.662-6.555c0.671-2.621-0.654-4.793-2.118-5.952l-0.018-0.014
		c-1.048-0.805-2.229-1.231-3.414-1.231c-1.098,0-2.149,0.356-3.123,1.061l-0.026,0.019c-6.252,4.721-13.197,7.856-20.549,11.174
		c-0.969,0.438-1.937,0.875-2.917,1.322c-0.443,0.207-0.899,0.411-1.357,0.615c-3.326,1.488-7.082,3.168-9.014,7.177
		c-0.059,0.031-0.117,0.064-0.173,0.097l-0.037,0.023c-2.698,1.717-5.743,2.536-8.096,3.057c-0.136,0.03-0.332,0.033-0.538,0.033
		h-0.161c-0.552,0-1.475,0-2.42,0.597c-17.064,10.672-34.425,21.466-51.602,32.084c-1.709,1.057-2.107,2.384-1.25,4.176
		c0.729,1.525,1.458,3.09,2.161,4.604c2.354,5.063,4.789,10.296,7.801,15.181c0.375,0.801,0.295,1.025-0.036,1.479
		c-3.687,5.071-5.126,11.05-6.165,16.292c-0.322,0.601-0.854,1.813-0.271,2.954c0.436,0.853,1.328,1.359,2.652,1.507
		c0.643,0.086,1.308,0.25,2.012,0.423c0.363,0.089,0.737,0.182,1.116,0.264c8.722,2.36,17.602,4.589,26.401,6.627
		c0.544,0.274,1.313,0.582,2.212,0.582c0.31,0,0.624-0.037,0.93-0.109l0.093-0.022l0.09-0.033c0.621-0.232,1.357-0.789,1.337-2.13
		l-0.001-0.076l5.445-18.197c0.072-0.219,0.131-0.432,0.187-0.636c0.156-0.568,0.263-0.927,0.473-1.094
		c2.72-2.021,4.158-4.886,4.396-8.758l0.002-0.032c0.02-0.505,0.137-1.049,0.261-1.624c0.126-0.586,0.257-1.193,0.31-1.852
		c0.1-1.052,0.4-1.498,1.277-1.908C154.11,140.959,160.025,136.539,164.878,131.007z"/>
	<path style="fill:#C18F69;" d="M354.376,302.119l-0.03-0.01l-0.03-0.009c-1.049-0.33-2.139-0.499-3.242-0.502
		c-0.487,0-0.943,0.056-1.323,0.111l-0.073,0.01l-0.078,0.02c-0.033,0.007-0.067,0.01-0.099,0.015
		c-0.139,0.019-0.329,0.044-0.544,0.115c-0.214,0.072-0.362,0.15-0.499,0.232l-0.206,0.1l-0.388,0.388l-0.085,0.128
		c-0.568,0.853-0.267,1.736-0.106,2.209c0.017,0.05,0.04,0.115,0.056,0.169c-0.084,0.374-0.098,0.729-0.111,1.023
		c-0.007,0.173-0.016,0.369-0.038,0.474c-0.19,0.569-0.366,1.039-0.562,1.509c-0.319,0.75-0.67,1.499-1.044,2.226
		c-0.912,1.65-2.066,3.279-3.495,4.932c0.069-0.424,0.196-0.867,0.383-1.341l0.039-0.098l0.014-0.055
		c0.013-0.024,0.025-0.047,0.039-0.072c0.03-0.055,0.061-0.113,0.091-0.174l0.015-0.028l0.013-0.029
		c0.344-0.758,0.774-1.497,1.23-2.281c0.129-0.22,0.257-0.441,0.381-0.659c0.044-0.077,0.13-0.188,0.219-0.305
		c0.126-0.164,0.268-0.348,0.401-0.567c0.03-0.045,0.057-0.088,0.08-0.13l0.024-0.024l0.121-0.283
		c0.173-0.403,0.23-0.84,0.165-1.271c-0.148-1.783-1.95-3.996-3.481-5.377c-0.61-0.544-1.139-0.937-1.62-1.205
		c-0.678-0.376-1.226-0.585-1.721-0.655c-0.67-0.103-1.27-0.154-1.916-0.204l-0.038-0.003c-1.575-0.134-3.203-0.273-4.615-0.697
		l-0.438-0.146c-2.511-0.787-5.014-1.705-7.441-2.731c-0.797-0.336-1.598-0.697-2.377-1.072l-0.028-0.014
		c-3.179-1.45-6.245-3.195-9.113-5.187c-0.82-0.571-1.639-1.134-2.457-1.696c-1.353-0.93-2.752-1.892-4.111-2.859
		c-0.415-0.29-0.834-0.581-1.254-0.872c-1.02-0.707-2.074-1.438-3.083-2.179l-0.019-0.014c-2.142-1.52-4.261-3.129-6.301-4.785
		l-0.048-0.04l-0.056-0.039c-0.032-0.023-0.064-0.051-0.096-0.078c-0.075-0.062-0.164-0.137-0.27-0.212
		c-0.178-0.143-0.353-0.265-0.509-0.373c-0.132-0.091-0.256-0.178-0.348-0.254l-0.044-0.037l-0.277-0.196
		c-0.223-0.157-0.414-0.292-0.587-0.437l-0.047-0.038c-0.417-0.323-0.688-0.588-0.871-0.851c-0.205-0.299-0.425-0.593-0.647-0.863
		c-0.081-0.101-0.162-0.213-0.243-0.325c-0.106-0.144-0.213-0.294-0.328-0.436c-0.541-0.679-1.104-1.353-1.649-2.005
		c-2.344-2.807-4.557-5.458-5.559-8.928l-1.174-4.067l-1.709,3.873c-1.637,3.711-3.395,6.76-5.361,9.308
		c-0.722,0.912-1.68,2.095-2.681,3.147c-3.874,4.006-8.549,6.804-13.906,8.322c-2.216,0.645-4.53,1.081-6.997,1.316
		c0.278-0.24,0.564-0.493,0.857-0.785c1.045-0.937,2.179-1.848,3.275-2.73c2.312-1.859,4.701-3.779,6.652-6.212l0.23-0.154
		l0.047-0.032c0.576-0.417,0.946-1.062,1.014-1.769l0.007-0.073v-1.852h-1.537c-0.155,0-0.288,0.022-0.396,0.048h-0.048
		l-0.238,0.079c-0.41,0.138-1.06,0.355-1.61,0.931c-2.141,1.248-4.389,2.439-6.564,3.591c-0.566,0.3-1.134,0.601-1.701,0.904
		l-0.023,0.013c-0.205,0.114-0.398,0.216-0.592,0.319c-0.21,0.111-0.42,0.223-0.642,0.346c-0.709,0.378-1.38,0.736-2.089,1.046
		l-0.036,0.016l-0.036,0.018c-1.291,0.646-2.546,1.19-3.597,1.634c-5.776,2.403-11.961,3.98-18.394,4.688
		c-3.579,0.43-7.224,0.77-10.751,1.1c-3.566,0.333-7.184,0.623-10.741,0.859l-0.197,0.012c-2.277,0.136-4.631,0.277-6.939,0.37
		c-0.206,0.001-0.402,0.014-0.593,0.026c-0.16,0.01-0.31,0.02-0.428,0.02c-0.392,0-0.774,0.013-1.144,0.025
		c-0.341,0.012-0.662,0.023-0.967,0.023c-0.759,0-1.484,0.047-2.213,0.1c-0.751,0.05-1.474,0.148-2.272,0.306
		c-0.339,0.051-0.657,0.133-0.964,0.212l-0.212,0.054c-6.539,1.688-12.241,3.78-17.447,6.407c-1.502,0.779-2.999,1.62-4.453,2.496
		c-0.987,0.599-1.957,1.251-2.883,1.938c-0.464,0.324-0.985,0.69-1.426,1.072c-1.048,0.832-2.21,1.878-2.938,3.332
		c-0.103,0.208-0.23,0.46-0.319,0.758c-0.027,0.073-0.047,0.139-0.062,0.194l-0.025,0.049l-0.042,0.168
		c-0.027,0.107-0.053,0.227-0.08,0.347c-0.021,0.095-0.042,0.19-0.064,0.275l-0.02,0.077l-0.011,0.079
		c-0.064,0.444-0.064,0.86-0.064,1.226v0.036l0.002,0.034c0.061,1.334,0.423,2.801,1.072,4.348
		c2.418,5.926,5.549,11.763,9.303,17.343c0.574,0.867,1.255,1.659,2.027,2.356l0.096,0.087l2.846,1.811l0.109,0.048
		c1.65,0.722,3.553,1.089,5.654,1.089c1.912,0,2.563,0.409,3.171,1.996c2.423,6.196,6.781,11.425,12.954,15.54l0.036,0.023
		c0.129,0.08,0.257,0.167,0.388,0.255c0.259,0.174,0.553,0.372,0.883,0.555c0.387,0.214,0.725,0.424,1.128,0.677l0.027,0.017
		l0.027,0.016c1.754,1.001,3.367,2.095,4.714,3.034c0.27,0.196,0.528,0.38,0.785,0.564c0.238,0.17,0.476,0.34,0.725,0.52
		c1.953,1.482,3.835,3.097,5.594,4.802c0.146,0.146,0.298,0.293,0.451,0.441c0.296,0.285,0.575,0.554,0.828,0.835l0.025,0.027
		l0.026,0.026c1.748,1.765,3.472,3.6,5.128,5.46c0.14,0.156,0.275,0.312,0.409,0.467c0.267,0.309,0.544,0.629,0.851,0.939
		c0.413,0.484,0.836,0.956,1.246,1.413c0.402,0.448,0.818,0.911,1.209,1.371l0.014,0.016c2.24,2.561,3.995,4.892,5.361,7.128
		l0.028,0.047l0.031,0.045c0.126,0.178,0.25,0.402,0.381,0.639c0.053,0.097,0.106,0.192,0.163,0.293
		c0.708,1.226,1.282,2.448,1.706,3.633l0.017,0.044c1.195,3.047,3.385,4.932,5.165,6.234c1.071,0.816,2.221,1.515,3.334,2.192
		l0.051,0.029c0.28,0.156,0.555,0.311,0.83,0.467c0.569,0.323,1.158,0.656,1.791,0.99l0.029,0.016
		c0.581,0.29,1.143,0.616,1.739,0.962c0.606,0.351,1.232,0.714,1.893,1.045c1.161,0.609,2.164,1.025,3.158,1.309l0.024,0.006
		l0.561,0.141c0.154,0.045,0.284,0.067,0.375,0.082l0.024,0.004l0.092,0.03l0.144,0.02c2.954,0.405,5.396,0.595,7.684,0.595
		c1.53,0,2.958-0.084,4.371-0.256l0.28-0.034c1.07-0.133,2.177-0.27,3.258-0.449c0.981-0.13,1.899-0.289,2.868-0.459l0.34-0.06
		c0.122-0.009,0.223-0.028,0.292-0.042h0.048l0.127-0.022c1.105-0.187,2.224-0.401,3.313-0.633c2.778-0.569,5.564-1.274,8.28-2.095
		c0.887-0.255,1.779-0.535,2.654-0.835l0.038-0.013l0.037-0.015c0.179-0.071,0.373-0.134,0.497-0.159l0.099-0.02l0.096-0.032
		c0.832-0.285,1.667-0.596,2.483-0.924c0.178-0.062,0.342-0.13,0.488-0.19c0.122-0.051,0.236-0.098,0.328-0.13l0.057-0.02
		l0.056-0.024c0.152-0.065,0.313-0.13,0.475-0.194c0.2-0.08,0.399-0.16,0.603-0.248l1.316-0.584
		c1.166-0.538,2.335-1.115,3.474-1.713l0.028-0.016c1.429-0.789,2.857-1.626,4.242-2.486l0.042-0.027
		c0.718-0.479,1.392-0.96,2.044-1.425l0.077-0.055c2.015-1.486,3.73-2.989,5.244-4.599c0.752-0.801,1.449-1.648,2.128-2.473
		l0.02-0.025c2.894-3.671,5.521-7.91,8.264-13.34c0.227-0.428,0.438-0.864,0.643-1.285c0.203-0.418,0.395-0.813,0.598-1.195
		l0.016-0.031c0.631-1.261,1.215-2.576,1.781-3.846l0.03-0.07c0.077-0.18,0.155-0.373,0.232-0.565
		c0.067-0.167,0.134-0.334,0.201-0.49l0.018-0.041l0.016-0.042c0.651-1.791,1.031-3.629,1.434-5.574
		c0.098-0.471,0.196-0.951,0.302-1.438l0.609-2.825l-2.683,1.074c-0.27,0.108-0.533,0.209-0.792,0.308
		c-0.425,0.163-0.864,0.332-1.306,0.521l-0.503,0.216c-0.811,0.351-1.576,0.682-2.34,0.949c-0.838,0.303-1.713,0.5-2.6,0.587
		l-0.034,0.003l-0.034,0.005c-0.158,0.023-0.319,0.034-0.478,0.034c-0.027,0-0.121-0.001-0.121-0.001
		c-0.688,0-0.765-0.131-0.863-0.442l0.055-0.022l0.057-0.028c0.027-0.014,0.104-0.032,0.231-0.057l0.077-0.016l0.075-0.023
		c0.181-0.055,0.36-0.122,0.535-0.199l0.018-0.007c0.227-0.091,0.46-0.185,0.679-0.29l0.653-0.261l0.451-0.172
		c3.136-1.197,6.379-2.435,9.226-4.463c1.971-1.386,3.659-2.765,5.161-4.217c0.628-0.58,1.277-1.179,1.888-1.84
		c3.004-3.17,5.167-6.445,6.611-10.009c0.065-0.131,0.122-0.265,0.171-0.403c0.133-0.296,0.303-0.596,0.483-0.912
		c0.22-0.388,0.448-0.789,0.648-1.248c0.068-0.157,0.118-0.204,0.117-0.205c0.005-0.002,0.06-0.023,0.2-0.023
		c0.548,0,1.072-0.075,1.535-0.141c0.289-0.042,0.564-0.08,0.819-0.099h1.195c5.022,0,8.149-3.297,10.777-6.853
		c1.858-2.494,3.062-5.448,4.028-7.821l0.017-0.042c0.13-0.345,0.253-0.631,0.415-0.956l0.017-0.034l0.016-0.036
		c0.647-1.479,1.452-3.318,1.565-5.376l0.002-0.042v-0.064c0.003-0.029,0.006-0.06,0.009-0.091
		C355.797,304.422,355.981,302.7,354.376,302.119z M305.454,321.91l-0.022-0.004c-1.293-0.222-2.577-0.308-3.818-0.393
		c-0.464-0.031-0.93-0.064-1.397-0.102c-1.963-0.166-4-0.484-5.6-1.673c-1.784-1.309-3.816-1.482-5.622-1.636l-0.025-0.002
		c-2.15-0.148-3.977-1.21-5.91-2.335c-0.22-0.129-0.441-0.256-0.661-0.383c-0.578-0.346-0.783-0.859-0.875-2.185l-0.002-0.03
		c-0.156-1.745-0.259-2.897-1.024-3.789c-0.769-0.897-1.88-1.158-3.557-1.551c-3.96-0.946-7.08-2.985-9.283-6.078
		c-1.062-1.454-1.743-3.322-1.97-5.415c-0.189-1.591-0.302-3.286-0.362-5.447c0.649,0.841,1.196,1.585,1.35,2.446l0.004,0.02
		c0.257,1.335,0.66,2.598,1.05,3.813c1.537,4.929,5.677,5.658,9.005,6.243c0.335,0.059,0.671,0.118,1.014,0.183
		c7.629,1.39,15.089,2.095,22.177,2.095c4.936,0,9.837-0.341,14.585-1.012c-0.103,0.038-0.206,0.076-0.308,0.114
		c-0.79,0.292-1.606,0.594-2.385,0.874c-5.794,1.996-11.495,3.818-17.524,4.188c-0.155,0.008-0.315,0.013-0.476,0.013
		c-1.32,0-2.654-0.284-4.067-0.586c-0.904-0.193-1.839-0.393-2.778-0.516c-0.125-0.018-0.265-0.046-0.413-0.075
		c-0.367-0.073-0.783-0.157-1.273-0.157c-0.333,0-0.65,0.039-0.968,0.118l-1.356,0.337l0.207,1.382
		c0.305,2.035,1.522,3.749,3.627,5.102c2.169,1.368,4.767,2.826,8.158,2.826c4.608,0,9.284-0.481,14.716-1.512
		c1.104-0.196,2.006-0.697,2.773-1.156c1.474-0.895,2.984-1.732,4.416-2.487c-2.723,2.504-5.782,5.119-9.443,8.083
		c-0.752,0.608-1.155,0.73-1.559,0.73C305.734,321.95,305.598,321.936,305.454,321.91z M241.414,379.126
		c-0.264,1.186-0.514,2.306-0.984,3.336c-0.017-0.025-0.034-0.051-0.052-0.077c-0.692-0.968-0.843-2.164-1.018-3.547
		c-0.044-0.35-0.09-0.711-0.146-1.074c0.29-1.048,0.446-2.089,0.597-3.098c0.211-1.417,0.411-2.755,0.958-3.994
		c1.422-3.164,4.396-4.121,7.544-5.134c0.43-0.139,0.859-0.277,1.285-0.421c4.175-1.422,8.753-2.217,13.602-2.365
		c0.172-0.005,0.344-0.007,0.515-0.007c4.215,0,7.626,1.454,10.155,4.328c-3.002-1.68-6.201-1.992-9.305-2.294
		c-0.979-0.095-1.992-0.194-2.979-0.337c-0.251-0.033-0.504-0.05-0.753-0.05c-0.684,0-1.364,0.127-2.023,0.381
		c-0.632,0.246-1.265,0.49-1.898,0.735c-2.784,1.075-5.662,2.187-8.461,3.408c-2.078,0.886-5.009,2.678-6.486,7.99
		C241.742,377.654,241.575,378.402,241.414,379.126z M275.177,352.137c-0.438,0-0.837,0.083-1.188,0.156l-0.131,0.027
		c-4.619,0.781-8.955,2.51-13.359,4.363c-1.287,0.54-2.52,0.815-3.664,0.815c-1.58,0-3.024-0.504-4.408-1.536
		c-2.047-1.542-4.207-2.325-6.421-2.325c-1.821,0-3.707,0.533-5.602,1.581c-2.389,1.308-4.612,1.943-6.795,1.945
		c-1.085,0-2.177-0.163-3.251-0.487c-0.312-0.093-0.635-0.189-0.77-0.307l-0.028-0.024c-0.054-0.045-0.142-0.118-0.241-0.203
		c0.073-0.048,0.152-0.098,0.235-0.153c0.113-0.072,0.227-0.145,0.342-0.218c0.608-0.387,1.237-0.787,1.834-1.293l0.045-0.04
		c0.497-0.457,0.869-0.548,1.307-0.548c0.295,0,0.65,0.047,1.097,0.145c0.493,0.114,1.004,0.172,1.516,0.172
		c1.649,0,3.389-0.606,5.029-1.75c1.57-1.089,3.158-1.617,4.854-1.617c1.762,0,3.711,0.581,5.959,1.775
		c0.094,0.06,0.185,0.112,0.268,0.16c0.033,0.019,0.067,0.038,0.099,0.056c1.569,1.264,3.464,2.536,5.666,2.536
		c1.722,0,3.335-0.753,4.927-2.298c0.478-0.46,1.504-0.474,2.589-0.491c0.597-0.008,1.213-0.018,1.831-0.101
		c0.827-0.114,1.68-0.209,2.506-0.302c3.303-0.369,6.713-0.75,9.916-2.424c0.21,0.33,0.435,0.632,0.638,0.906
		c0.522,0.702,0.845,1.16,0.88,1.692l0.003,0.052c0,0,0.011,0.086,0.014,0.1c-0.173,0.075-0.347,0.154-0.52,0.231
		c-0.771,0.347-1.498,0.675-2.084,0.675c-0.262,0-0.626-0.059-1.122-0.518C276.6,352.39,275.939,352.137,275.177,352.137z
		 M200.756,316.366c-0.127,0.046-0.24,0.069-0.345,0.069c-0.159,0-0.432-0.047-0.957-0.455c-0.054-0.044-0.103-0.085-0.146-0.122
		c0.034-0.016,0.071-0.033,0.11-0.05c1.89-0.848,3.996-1.351,5.852-1.795c0.224-0.053,0.445-0.107,0.662-0.159
		c0.614,0.069,1.187,0.117,1.744,0.164c1.111,0.093,2.07,0.173,2.992,0.397c2.816,0.658,5.672,0.979,8.733,0.979
		c3.018,0,6.173-0.316,9.637-0.962c1.144-0.206,2.646-0.443,4.11-0.443c1.403,0,2.643,0.212,3.788,0.65
		c0.25,0.099,0.485,0.163,0.693,0.22c0.096,0.026,0.232,0.064,0.308,0.091c0.053,0.048,0.108,0.094,0.162,0.139l-0.402,0.053
		c-2.782,0.372-5.409,0.723-8.144,0.996c-1.119,0.124-1.966,0.539-2.823,0.997c-0.467,0.256-0.929,0.522-1.376,0.778
		c-1.42,0.815-2.761,1.585-4.227,2.086c-1.185,0.4-2.337,0.603-3.426,0.603c-2.003,0-3.873-0.693-5.56-2.06
		c-2.319-1.948-4.795-2.934-7.362-2.934C203.474,315.608,202.119,315.863,200.756,316.366z M203.696,298.819
		c0.071,0.001,0.166,0.009,0.266,0.019c0.143,0.013,0.303,0.027,0.481,0.029c12.035,0.752,23.211,1.924,34.165,3.58
		c0.715,0.108,1.412,0.163,2.072,0.163c3.257,0,5.861-1.291,7.732-3.83c0.231-0.308,0.464-0.614,0.696-0.922
		c1.216-1.605,2.473-3.265,3.524-5.072c0.152-0.252,0.51-0.847,0.752-1.067c0.156,0.088,0.375,0.357,0.236,1.432l-0.003,0.024
		c-0.641,5.623-3.095,9.848-7.519,12.928c-0.29,0.207-1.062,0.757-1.165,1.723c-0.101,0.947,0.503,1.609,0.719,1.846
		c4.214,4.719,5.082,10.705,5.61,16.418c0.212,2.552-0.283,5.053-1.474,7.434c-0.934,1.865-0.602,3.418,1.014,4.747
		c1.195,1.013,2.288,2.105,3.446,3.263c0.829,0.829,1.742,1.249,2.713,1.249c0.822,0,1.622-0.295,2.444-0.901
		c0.847-0.612,1.493-1.36,2.118-2.085c0.127-0.148,0.256-0.297,0.386-0.443l0.024-0.028c0.288-0.343,0.575-0.689,0.862-1.033
		c1.969-2.372,3.829-4.613,6.382-6.123c0.698-0.422,1.439-0.654,2.088-0.654c0.655,0,1.166,0.226,1.518,0.67
		c-3.157,1.185-4.939,3.846-6.518,6.201c-0.15,0.224-0.3,0.447-0.447,0.664c-0.932,1.363-1.788,2.779-2.616,4.149
		c-0.308,0.51-0.615,1.02-0.924,1.52c-1.153,1.858-3.082,2.966-5.161,2.966c-1.535,0-2.989-0.577-4.203-1.663
		c-0.325-0.294-0.655-0.586-0.986-0.879c-1.228-1.085-2.389-2.109-3.282-3.277c-1.875-2.467-4.278-3.33-6.641-3.606
		c0.612-1.014,1.474-1.97,2.652-2.957c2.596-2.092,3.687-4.909,3.437-8.863c-0.209-3.323-0.643-7.656-2.158-11.713l-0.007-0.018
		c-0.99-2.552-2.308-5.118-5.236-6.612c-1.089-0.569-2.168-0.7-3.121-0.815c-0.165-0.02-0.33-0.04-0.489-0.062
		c-2.714-0.378-5.469-0.821-8.133-1.251c-5.106-0.822-10.386-1.672-15.692-2.117c-1.695-0.142-3.411-0.214-5.1-0.214
		c-3.793,0-7.653,0.366-11.506,1.089c1.865-2.103,4.176-3.802,6.583-5.571L203.696,298.819z M169.324,307.592
		c0.96,0.934,1.32,2.214,1.737,3.697c0.171,0.609,0.348,1.239,0.572,1.853c0.609,1.727,1.374,3.521,3.399,4.811
		c0.897,0.578,1.451,1.412,1.702,2.6c-1.011-1.352-2.336-2.441-4.008-3.296c-3.798-1.939-5.624-5.512-4.758-9.339
		c0.092-0.429,0.293-0.682,0.84-0.971C168.939,307.141,169.102,307.372,169.324,307.592z"/>
	<path style="fill:#C18F69;" d="M392.794,144.921c-4.461-11.74-8.549-22.31-13.421-32.757l-0.009-0.019
		c-0.54-1.118-0.606-1.981-0.219-2.881c2.402-5.309,3.266-10.937,2.566-16.73c-0.154-1.272-0.109-2.579-0.062-3.962
		c0.049-1.447,0.1-2.943-0.08-4.468c-0.623-5.5-2.039-10.825-3.408-15.974c-0.562-2.115-1.144-4.301-1.659-6.46
		c-1.435-6.092-4.098-11.704-6.674-17.131c-1.028-2.166-2.091-4.406-3.052-6.63c-1.541-3.565-3.628-6.906-5.647-10.136
		c-1.064-1.702-2.164-3.463-3.155-5.213c-0.768-1.36-1.598-2.687-2.401-3.97c-1.007-1.609-1.959-3.131-2.805-4.719
		c-1.418-2.698-3.355-5.675-6.964-7.306l-0.018-0.008c-0.104-0.046-0.215-0.1-0.33-0.157c-0.549-0.267-1.232-0.601-2.014-0.601
		c-0.755,0-1.434,0.323-1.91,0.908l-0.031,0.04c-0.583,0.767-2.134,2.803-1.156,5.166c0.534,1.286,1.099,2.589,1.646,3.848
		c0.538,1.24,1.095,2.522,1.62,3.786c0.738,1.749,1.52,3.51,2.278,5.212c2.285,5.138,4.648,10.45,5.99,15.997l0.157,0.633
		c0.674,2.727,1.311,5.304,1.481,7.97l0.003,0.037c0.019,0.214,0.02,0.396,0.01,0.546c-0.106-0.158-0.227-0.321-0.368-0.472
		c-1.805-1.966-4.282-4.223-7.457-4.223c-0.878,0-1.755,0.18-2.609,0.534l-0.041,0.018c-0.378,0.17-0.852,0.26-1.37,0.26
		c-0.285,0-0.58-0.027-0.876-0.079c-0.042-0.008-0.092-0.019-0.146-0.03c0.032-0.022,0.065-0.044,0.096-0.066
		c0.167-0.111,0.363-0.223,0.568-0.34c0.422-0.24,0.9-0.512,1.323-0.892l0.022-0.02c1.844-1.723,1.529-3.5,0.616-4.595
		c-0.47-0.581-0.938-1.203-1.392-1.803c-1.326-1.758-2.697-3.576-4.506-5c-4.257-3.336-9.234-7.174-14.412-10.493l-0.039-0.024
		c-0.34-0.204-0.678-0.418-1.037-0.645c-0.366-0.232-0.743-0.471-1.119-0.695c-8.144-4.914-17.077-9.752-27.302-14.785
		c-1.101-0.55-2.586-1.181-4.298-1.181c-0.157,0-0.316,0.005-0.472,0.016l-0.049,0.004c-0.099,0.009-0.2,0.018-0.299,0.026
		c-0.916,0.075-2.622,0.214-3.365,2.009c-0.677,1.569-0.417,3.246,0.715,4.604l0.185,0.212c0.985,1.127,2.101,2.405,3.693,3.307
		c1.188,0.673,2.413,1.318,3.597,1.941c2.774,1.462,5.643,2.973,8.12,4.895c6.781,5.198,14.05,10.837,21.252,16.848
		c2.271,1.877,4.359,3.997,6.105,5.827l3.621,3.765c0.276,0.275,0.404,0.514,0.432,0.605c0.008,0.05,0.018,0.097,0.028,0.14v0.028
		c-0.024,0.043-0.074,0.116-0.173,0.214c-0.193,0.193-0.283,0.193-0.317,0.193c-0.284,0-0.82-0.3-1.221-0.526
		c-0.15-0.096-0.353-0.336-0.55-0.569c-0.092-0.11-0.185-0.219-0.28-0.326l-0.03-0.034l-0.609-0.609
		c-0.316-0.315-0.62-0.63-0.923-0.944c-0.616-0.638-1.254-1.298-1.962-1.938l-0.1-0.089c-0.383-0.335-0.816-0.715-1.287-1.033
		c-2.68-2.01-5.403-4.041-8.037-6.004c-2.637-1.966-5.366-3.999-8.047-6.01l-0.605-0.453c-5.081-3.812-10.336-7.753-15.454-11.627
		c-3.022-2.302-6.263-4.269-9.907-6.015c-0.701-0.336-1.304-0.493-1.895-0.493c-1.453,0-2.353,1.004-2.649,1.334l-0.032,0.038
		c-1.398,1.666-1.632,3.556-0.682,5.452c1.084,2.215,2.649,4.194,4.791,6.054c0.458,0.393,0.917,0.783,1.378,1.171
		c1.968,1.665,3.826,3.236,5.423,5.056l0.014,0.016c2.776,3.08,5.613,6.196,8.356,9.21c7.199,7.908,14.644,16.085,21.68,24.368
		c0.521,0.635,0.809,1.246,0.908,1.936c0.039,0.25,0.037,0.427,0.025,0.537c-0.089-0.006-0.231-0.028-0.435-0.093
		c-0.267-0.124-0.531-0.264-0.783-0.415l-0.569-0.323c-11.644-6.587-23.686-13.398-34.726-21.291
		c-3.073-2.181-6.61-4.144-10.815-6.002l-0.077-0.036c-0.712-0.327-1.518-0.697-2.442-0.697c-0.774,0-1.88,0.273-2.745,1.572
		l-0.018,0.027c-1.084,1.703-0.48,4.663,1.233,5.985c3.239,2.449,6.359,5.207,9.377,7.874c0.953,0.842,1.938,1.714,2.916,2.564
		c1.331,1.157,2.693,2.321,4.009,3.447c7.681,6.567,15.622,13.358,21.339,22.011c1.063,1.568,3.46,2.271,5.363,2.271
		c0.808,0,1.971-0.126,2.921-0.731c3.973-2.523,7.857-3.751,11.875-3.751c0.069,0,0.139,0,0.209,0.001l-12.501,8.119
		c-0.657,0.428-1.053,0.486-1.354,0.486c-0.214,0-0.448-0.036-0.717-0.108l-0.019-0.005c-0.495-0.126-0.983-0.271-1.5-0.423
		c-1.539-0.453-3.131-0.923-4.928-0.923c-0.073,0-0.146,0.001-0.204,0.002c-7.977,0.086-16.584,0.914-27.1,2.612
		c-0.276,0.047-0.554,0.091-0.831,0.135c-1.808,0.287-3.677,0.585-5.491,1.634c-1.54,0.9-2.286,2.497-2.047,4.385
		c0.216,2.003,1.2,3.178,2.922,3.49c4.733,0.938,9.527,1.931,14.164,2.891l2.425,0.502c0.297,0.073,0.596,0.147,0.894,0.223
		c1.603,0.402,3.256,0.817,4.987,0.978c7.248,4.565,13.055,8.466,18.25,12.259c4.332,3.167,8.426,4.991,12.895,5.745
		c1.52,0.242,3.076,0.657,4.58,1.058c0.506,0.135,1.011,0.27,1.507,0.396c0.918,0.241,1.871,0.404,2.793,0.562
		c1.853,0.317,3.603,0.615,4.72,1.472c1.23,0.945,2.079,2.808,2.901,4.609c0.31,0.682,0.632,1.387,0.979,2.055
		c0.357,0.738,1.421,2.886,3.967,2.886c0.4,0,0.828-0.054,1.272-0.163l0.021-0.005c0.168-0.044,0.269-0.05,0.315-0.05
		c0.004,0,0.008,0,0.011,0c0.053,0.061,0.186,0.251,0.381,0.797c0.997,2.842,2.027,5.718,3.024,8.498
		c1.256,3.504,2.554,7.125,3.784,10.68l0.029,0.085l0.04,0.082c0.401,0.832,1.149,2.379,2.976,2.379
		c0.405,0,0.838-0.075,1.358-0.237c8.733-2.707,18.185-5.544,28.882-8.67c0.834-0.234,1.854-0.631,2.349-1.633
		C393.417,146.778,393.116,145.728,392.794,144.921z"/>
</g>
<path style="fill:#004284;" d="M322.486,400.067l63.791-25.996l1.056-22.544l11.079-22.878l2.446-25.324l12.471-38.131
	l13.862-31.894l-1.055-7.627l-2.063-6.955l1.391-7.962l-2.445-9.353l1.391-6.57l-12.471-15.253l-55.493,19.426l2.446,7.29
	l-5.181,8.681l4.844,14.917l-7.627,14.917l10.745,32.231l22.878,12.135c-1.055,0.335-29.114-2.446-29.114-2.446l6.57,13.525
	l-7.625,21.152l-9.016,4.509l-7.627,2.446l-14.917,17.315l-11.079,27.339l9.353,27.052L322.486,400.067L322.486,400.067z
	 M87.851,208.597l56.597,6.475l7.289,35.973l-12.229,29.066l6.859,4.987l11.847,32.903l13.813,15.302l9.545,5.755l16.834,16.066
	l19.521,14.533l-6.907,14.917l1.15,11.079l-2.302,6.14l-4.22,11.847l-40.913-11.847l1.153-6.907l-5.755-7.627l1.917-7.29
	l-55.829-40.912l-4.22-10.36l-12.229-3.79l-0.385-87.629l-4.989-12.614L87.851,208.597L87.851,208.597z"/>
<path style="fill:#885630;" d="M346.425,328.352L346.425,328.352L346.425,328.352z"/>
<g>
	<path style="fill:#63401E;" d="M190.032,349.94L190.032,349.94c-0.362-0.339-0.712-0.689-1.062-1.039
		c-0.404-0.411-0.817-0.813-1.236-1.209c-1.566-1.407-3.045-1.065-3.607-0.851c-0.556,0.208-1.876,0.913-2.107,2.875
		c-0.23,1.739-0.299,3.451-0.365,5.106c-0.092,2.311-0.179,4.494-0.684,6.593l-0.794,3.498h5.35l0.784-1.567
		c0.744-1.488,1.49-2.989,2.234-4.491c0.74-1.494,1.482-2.986,2.227-4.477v-0.001c0.703-1.38,0.493-3.05-0.529-4.214L190.032,349.94
		z"/>
	<path style="fill:#63401E;" d="M346.425,328.352l-0.981-0.429c-1.81-0.791-3.451,0.134-4.54,0.744
		c-0.234,0.132-0.461,0.275-0.651,0.346c-2.211,0.791-3.284,2.243-3.192,4.288c0.138,4.077,0.574,8.391,1.376,13.576l1.401,9.066
		l3.956-8.276c0.62-1.294,0.78-2.383,0.898-3.179l0.061-0.401c0.387-2.294,0.775-4.542,1.162-6.792l0.558-3.241
		c0.043-0.214,0.138-0.445,0.219-0.679c0.355-1.007,0.893-2.533,0.184-4.052L346.425,328.352z"/>
	<path style="fill:#63401E;" d="M355.162,285.843c4.72,0.076,9.177,0.15,13.675,0.814l11.139,1.644l-9.031-6.722l0,0
		c-2.302-1.713-5.102-2.798-8.311-3.22c-2.052-0.282-4.111-0.544-6.168-0.81c0.569-0.043,1.117-0.238,1.586-0.564
		c0.922-0.601,1.608-1.5,1.946-2.546l0.27-0.807l-0.218-0.82c-0.086-0.33-0.165-0.662-0.238-0.997
		c-0.089-0.405-0.185-0.809-0.289-1.21l-0.133-0.497l-8.57-36.114l-8.416-9.481c-10.803-21.766-22.903-23.812-37.312-30.586
		c-0.156-0.078-0.318-0.143-0.485-0.194l-0.234-0.074c-4.242-1.297-8.59-1.089-13.688,0.652l-0.028,0.01
		c-2.939,1.039-11.14-5.564-18.285-11.084c-7.304-5.626-16.769-10.146-24.702-11.8c-10.028-2.091-20.481,1.034-29.703,3.791
		l-2.298,0.683c-1.805,0.548-3.534,1.189-5.091,1.787c-1.487,0.637-2.884,1.389-4.234,2.271
		c-5.221,3.297-11.138,7.034-16.241,11.877c-0.21,0.19-0.413,0.387-0.609,0.578c-0.188,0.186-0.366,0.37-0.576,0.533l-0.2,0.16
		c-1.349,1.038-2.465,2.073-3.543,3.075c-0.509,0.472-1.017,0.944-1.543,1.411l-0.983,0.884
		c-5.445,5.949-9.934,12.733-13.899,18.728c-1.906,2.902-3.902,6.046-5.551,9.766c-0.688,1.563-5.373,3.071-6.265,4.669
		c-1.045,1.872-2.124,3.81-2.981,5.907l-0.465,10.558c0,0-7.313,17.589-11.587,24.406c-0.937,1.483-1.623,3.11-2.029,4.816
		l-1.89,7.791c0,0,10.149-5.216,13.694,16.779l1.836,7.333l3.439-6.731c0.339-0.66,0.642-1.304,0.934-1.925
		c0.621-1.317,1.157-2.453,1.874-3.365c2.879-3.811,6.857-6.208,11.84-7.125c3.04-0.576,6.097-0.906,9.334-1.254
		c1.447-0.158,2.896-0.313,4.361-0.494c5.679-0.731,11.518-1.18,17.167-1.613c6.88-0.528,13.991-1.073,20.98-2.136
		c10.033-1.522,20.598-3.786,29.884-9.994c1.576-1.059,3.185-2.072,4.792-3.086c4.696-2.961,9.551-6.022,13.692-10.24
		c4.016-4.119,7.922-8.661,10.414-14.204c-1.351,7.732,0.589,14.405,5.841,19.891c0.298,0.299,0.598,0.596,0.866,0.814
		c4.736,4.298,10.579,9.114,18.022,12.264c2.869,1.21,5.786,2.439,8.769,3.554l-2.477,5.487l10.156,5.539
		c2.632,1.44,5.616,3.085,9.337,2.958c1.031-0.023,2.113,0.122,3.261,0.278c0.476,0.067,0.95,0.131,1.423,0.186l0.017,0.001
		c1.793,0.194,3.628,0.292,5.544,0.292c3.4,0,7.051-0.307,11.157-0.931l8.089-1.228l-7.114-4.041
		c-1.136-0.645-2.602-3.206-4.26-6.366c0.258,0.003,0.517,0.005,0.775,0.01C352.805,285.804,353.984,285.823,355.162,285.843z"/>
</g>
<g>
	<path style="fill:#1A1A1A;" d="M90.969,182.362L90.969,182.362c-1.44,0.096-3.07-0.048-4.318,1.153
		c-3.694,3.548-3.598,9.929,0.239,13.285c2.159,1.919,5.324,1.919,7.579,0c2.926-2.541,3.646-6.283,1.919-10.695
		C95.332,183.369,93.893,182.362,90.969,182.362z"/>
	<path style="fill:#1A1A1A;" d="M415.87,153.967L415.87,153.967c-3.07,0.048-5.85,2.927-5.707,5.852
		c0.144,2.733,2.494,5.133,5.083,5.035c2.734-0.048,5.373-3.07,5.325-6.044C420.475,155.502,418.94,153.919,415.87,153.967z"/>
	<path style="fill:#1A1A1A;" d="M332.559,441.027L332.559,441.027c-5.516-4.557-13.477-4.076-18.515,1.007
		c-3.117,3.213-3.646,6.474-1.678,10.503c1.487,3.022,3.548,5.611,5.563,8.296c1.44,1.87,2.974,3.742,4.318,5.709
		c0.959,1.391,0.479,2.493-1.15,3.022c-0.959,0.334-1.87,0.239-2.783-0.096c-2.831-1.007-5.324-2.589-7.481-4.605
		c-0.72-0.672-1.439-1.487-1.631-2.494c-0.239-1.487-1.054-2.157-2.493-2.302c-1.631-0.143-3.118-0.143-4.077,1.583
		c-1.583,2.783-1.15,5.275,1.726,7.866c5.516,4.892,12.086,7.051,18.659,7.579c5.996,0.095,9.687-5.325,7.722-10.408
		c-0.863-2.302-2.35-4.318-3.789-6.283c-2.399-3.166-4.892-6.235-7.147-9.497c-1.774-2.493-0.959-4.315,1.968-5.276
		c2.685-0.863,4.987-0.096,7.194,1.583c2.589,2.014,4.796,0.958,5.372-2.303C334.669,443.186,333.758,442.035,332.559,441.027z"/>
	<path style="fill:#1A1A1A;" d="M355.773,447.215c4.268-0.096,8.538-0.144,12.662-1.488c1.535-0.528,2.926-1.2,3.838-2.589
		c1.391-2.159,0.863-3.598-1.631-3.694c-5.468-0.239-10.936-0.672-16.404,0c-3.261,0.385-6.379,1.296-7.579,4.94
		c-0.048,0.191-0.287,0.479-0.479,0.528c-3.742,0.959-5.035,4.029-6.044,7.147c-2.111,6.907-3.981,13.91-5.947,20.815
		c-0.481,1.678,0.191,2.783,1.582,3.646c1.104,0.671,2.207,0.624,3.454,0.287c6.475-1.583,12.949-3.309,19.713-2.831
		c0.911,0.048,1.726-0.191,2.541-0.576c1.583-0.815,2.637-2.926,2.35-4.796c-0.287-1.822-1.726-2.35-3.261-2.59
		c-1.176-0.183-2.36-0.295-3.548-0.335c-4.124-0.095-8.251,0.481-12.375,1.055c0.624-4.557,0.959-4.844,5.276-4.844
		c3.214,0,6.427-0.191,9.449-1.439c2.014-0.863,3.309-2.255,3.502-4.509c0.143-1.535-0.481-2.446-2.064-2.494
		c-1.262-0.056-2.528-0.04-3.789,0.048c-2.926,0.239-5.852,0.528-9.066,0.815c0.479-1.054,0.72-2.014,1.248-2.733
		c0.863-1.248-0.144-3.548,1.678-4.172l0,0C352.367,446.928,354.141,447.262,355.773,447.215z"/>
	<path style="fill:#1A1A1A;" d="M148.281,441.125c-0.575,1.682-1.432,3.114-2.967,4.033c-0.961,0.575-1.975,0.857-3.03,0.23
		c-3.166-1.912-6.04-0.951-8.819,0.815c-2.163,1.442-3.594,3.459-4.89,5.663c-1.776,3.02-2.926,6.28-3.741,9.644
		c-0.209,0.794-0.24,1.63-0.104,2.445c0.439,2.152,1.16,2.633,3.271,2.111c4.263-1.108,8.296-2.926,12.413-4.409
		c1.254-0.439,2.456-0.961,3.845-0.92c1.39,0.052,2.058,0.575,2.058,2.069c0,1.63-0.627,2.926-1.682,4.075
		c-1.296,1.39-2.821,2.445-4.504,3.354c-4.838,2.644-9.989,4.409-15.308,5.642c-3.176-1.891-6.311-3.856-9.394-5.883
		c-0.481-1.933-0.47-3.95,0-5.998c1.964-8.871,5.998-16.687,12.904-22.727c3.208-2.79,6.907-4.514,12.225-4.754
		c1.87,0,4.42,0.909,6.865,2.299C148.334,439.348,148.616,440.111,148.281,441.125z"/>
	<path style="fill:#1A1A1A;" d="M425.175,177.181c1.583-0.479,2.016-1.391,2.111-2.829c0.911-12.086,1.822-24.222,2.783-36.308
		c0.144-1.679-0.143-2.014-1.87-1.487c-9.066,2.877-18.13,5.611-27.242,8.442c-2.783,0.863-2.831,0.863-4.077-1.87
		c-4.605-10.36-8.201-21.104-11.99-31.751c-0.816-2.254-0.816-4.268,0.143-6.331c1.344-3.741,0.481-7.531,0.385-11.318
		c-0.048-0.192-0.096-0.385-0.096-0.576c-0.958-10.408-2.35-20.769-5.083-30.937c-2.353-8.808-5.7-17.32-9.977-25.372
		c-4.557-8.633-9.449-17.171-14.725-25.469c-2.255-3.548-4.653-6.762-8.681-8.538c-1.44-0.622-2.879-0.815-4.414-0.958
		c-1.774-0.192-2.783,0.479-3.933,1.869c-1.965,2.399-2.685,5.803-1.391,8.586c3.789,8.201,7.242,16.595,10.551,24.989
		c0.191,0.385,0.433,0.768,0.767,1.344c-0.767-0.048-1.006-0.433-1.248-0.863c-5.947-6.188-12.949-11.127-19.951-16.068
		c-9.449-6.716-19.761-12.038-30.025-17.41c-1.391-0.72-2.783-1.153-4.268-1.296c-2.541-0.287-5.133-0.528-7.674-0.815
		c-4.029-0.481-7.099,1.822-7.099,5.85c0,2.159-0.911,2.637-2.685,2.783c-1.583,0.096-3.742,2.302-3.933,3.837
		c-0.576,4.892,0.959,9.016,4.557,12.375c8.872,8.299,17.458,16.885,26.044,25.469l0.287,0.144c0.239,0.191,0.43,0.43,0.576,0.767
		c-0.144,0.048-0.287,0.048-0.385,0.048c-0.286-0.048-0.543-0.202-0.72-0.433c-0.047-0.048-0.095-0.095-0.095-0.143
		c-1.248-0.72-2.542-1.392-3.742-2.207c-5.996-3.981-11.894-8.057-17.891-11.942c-2.783-1.822-5.707-3.166-9.209-3.405
		c-3.261-0.239-5.612,0.624-7.818,2.877c-1.487,1.487-2.016,3.022-1.774,5.037c0.334,2.926,2.302,4.748,4.461,6.235
		c10.025,6.764,18.993,14.677,27.292,23.454c0.719,0.768,1.486,1.583,2.302,2.255c2.35,1.919,3.789,4.461,5.227,7.098
		c0.672,1.2,0.433,1.487-0.863,1.487c-8.537,0-16.69,2.351-24.892,4.077c-3.357,0.72-6.668,1.87-7.866,5.611
		c-1.296,4.174-1.919,6.523,3.213,7.819c10.216,2.541,20.098,6.139,29.738,10.311c0.863,0.385,1.63,0.911,2.35,1.535
		c2.398,2.064,4.605,4.366,7.242,6.044c7.579,4.94,15.397,9.545,24.365,11.656c1.056,0.239,2.016,0.767,3.022,1.006
		c1.007,0.287,1.679,0.864,1.87,1.87c0.576,3.548,2.783,5.564,6.092,6.57c0.433,0.144,0.768,0.433,1.199,0.577
		c1.054,0.334,1.535,1.102,1.87,2.157c1.333,4.786,2.741,9.55,4.22,14.293c0.528,1.583,0.048,2.014-1.391,2.446
		c-7.435,2.159-14.821,4.414-22.207,6.666c-2.637,0.815-2.685,0.863-1.344,3.261l18.13,32.663c2.542,4.605,2.639,4.605,7.29,2.207
		c0.481-0.239,1.153-1.056,1.583-0.287c0.433,0.719,1.2,1.774,0.479,2.589c-2.254,2.591-3.789,5.612-5.707,8.394
		c-0.624,0.911-0.624,1.487-0.095,2.351c2.026,3.325,4.024,6.665,5.996,10.023c0.239,0.385,0.672,0.864,0.576,1.153
		c-0.768,2.446-1.631,4.891-2.446,7.337c-1.344-5.324-3.646-9.929-6.331-14.292c-3.598-5.755-8.201-10.841-12.375-16.213
		c-0.672-0.815-1.439-1.535-2.207-2.302c-3.981-4.124-9.114-6.618-13.958-9.544c-2.157-1.296-4.363-2.064-6.811-2.542
		c-7.481-1.583-14.917-2.207-22.35,0.096c-1.535,0.479-2.35,0.095-3.261-1.2c-1.822-2.542-3.309-5.468-5.755-7.435
		c-5.996-4.796-12.327-9.16-19.713-11.655c-5.611-1.919-11.32-3.166-17.267-3.357c-3.07-0.096-6.187,0.096-9.257,0.335
		c-7.914,0.624-15.78,1.487-22.783,5.85c-1.391,0.864-2.974,1.344-4.412,2.159c-7.194,3.885-14.293,7.723-20.289,13.573
		c-6.188,6.092-12.375,12.184-17.939,18.85c-6.426,7.674-11.27,16.356-15.636,25.324c-0.287,0.624-0.43,1.392-1.391,1.919
		c-0.815-5.083-1.631-9.977-2.398-14.869c-0.144-0.911,0.43-0.863,1.054-0.768c1.774,0.192,3.503,0.289,5.277,0.529
		c1.343,0.191,2.063-0.096,2.398-1.583c0.43-2.063,0.911-4.124,1.343-6.235c1.631-7.914,3.981-15.589,6.044-23.359
		c0.385-1.487,0.144-2.014-1.391-2.398c-7.627-1.822-15.251-3.837-22.878-5.659c-1.439-0.335-2.111-0.864-1.679-2.398
		c1.727-5.949,2.494-12.184,4.844-17.987c0.239-0.624,0.481-1.248,1.104-1.726c1.965-1.535,3.404-3.309,3.213-6.044
		c-0.144-2.063,0.815-3.357,2.783-4.268c3.646-1.726,7.146-3.742,10.6-5.755c2.733-1.583,4.987-3.789,6.522-6.666
		c6.427-12.086,11.799-24.798,19.569-36.164c0.672-1.007,1.2-2.111,2.016-2.974c5.035-5.277,9.735-10.888,15.397-15.589
		c1.774-1.487,2.254-3.5,2.302-5.707c0-2.542-1.487-4.318-3.022-6.092c-1.487-1.726-3.022-3.213-5.563-2.926
		c-0.577,0.048-1.153-0.191-1.776-0.287c0.385-0.768,1.007-0.959,1.535-1.296c6.774-4.363,13.537-8.744,20.289-13.142
		c8.201-5.277,16.356-10.6,24.605-15.876c1.054-0.672,1.535-1.198,0.382-2.207c-0.287-0.239-0.479-0.576-0.719-0.863
		c-1.679-1.965-1.679-1.965-3.981-0.576c-22.926,14.245-45.852,28.538-68.778,42.784c-2.016,1.248-2.016,1.248-3.022-1.007
		c-2.255-5.229-3.551-10.744-5.229-16.162c-0.385-1.248-0.048-1.968,0.911-2.734c5.755-4.605,11.031-9.785,16.356-14.821
		c2.159-2.063,3.357-4.509,3.741-7.387c0.433-3.405-1.822-5.181-4.891-3.933c-1.535,0.624-3.022,1.296-4.414,2.111
		c-13.573,7.481-28.059,12.614-42.928,16.932c-0.863,0.239-1.63,0.528-2.35-0.385c-1.487-1.822-3.694-2.829-5.564-4.172
		c-0.382-0.287-0.767-0.385-1.246-0.287c-2.016,0.528-4.077,1.104-5.325,2.926c-3.165,4.653-7.146,8.777-10.12,13.621
		c-3.405,5.612-6.667,11.223-10.503,16.548c-0.72,1.006-1.007,1.15-1.679-0.048c-4.22-7.435-8.49-14.869-12.71-22.302
		c-1.343-2.351-2.783-4.605-4.461-6.764c-1.87-2.35-4.172-3.502-7.147-3.166c-0.528,0.048-1.2-0.095-1.391,0.72
		c-0.43,2.207-1.439,4.509-1.15,6.618c0.672,5.42,1.631,10.84,2.974,16.117c2.302,9.16,4.892,18.225,7.627,27.244
		c2.637,8.872,5.611,17.601,8.49,26.427c0.239,0.768,0.672,1.439-0.385,2.063c-1.344,0.768-3.5,1.153-3.742,2.494
		c-0.239,1.391,1.007,3.022,1.583,4.509c0.048,0.096,0.096,0.239,0.144,0.335c0.479,1.15,0.719,2.877,1.582,3.309
		c1.153,0.576,2.207-1.007,3.262-1.631c0.959-0.576,1.294-0.43,1.726,0.576c2.494,5.852,5.035,11.656,7.579,17.508
		c0.385,0.911,0.479,1.822,0.143,2.734c-1.774,4.652-2.926,9.496-3.837,14.388c-0.239,1.391-0.767,1.391-1.822,1.102
		c-5.542-1.429-11.09-2.836-16.643-4.22c-2.446-0.624-2.446-0.624-2.734,1.87v0.191c-1.191,13.288-2.406,26.574-3.646,39.858
		c-0.095,1.2,0.048,1.679,1.344,1.822c3.885,0.481,7.722,1.104,11.56,1.679c0.719,0.096,1.343,0.143,1.15,1.2
		c-0.863,4.509-1.535,9.066-2.494,13.525c-0.287,1.344-0.096,2.255,0.672,3.261c1.343,1.727,2.637,3.503,3.981,5.277
		c0.911,1.248,1.582,2.877,0.767,4.172c-0.528,0.815-0.672,1.535-0.672,2.35c0.144,8.299,0.144,16.595,0.529,24.894
		c0.191,4.029,0.143,8.057,0.239,12.086c0.191,10.695,0.815,21.343,1.2,32.04c0.191,5.229-0.72,10.407-0.481,15.636
		c0.048,1.296,0.335,2.014,1.679,2.446c3.165,1.007,6.235,2.302,9.449,3.309c1.726,0.528,2.926,1.487,3.692,3.118
		c0.672,1.439,0.863,2.878,0.768,4.363c-0.048,1.439,0.479,2.303,1.63,3.118c4.94,3.548,9.834,7.194,14.773,10.84
		c12.999,9.592,25.997,19.232,39.043,28.779c1.2,0.911,1.487,1.63,0.768,2.926c-0.672,1.248-1.104,2.685-1.774,3.933
		c-0.577,1.15-0.481,1.87,0.622,2.685c1.631,1.15,3.214,2.446,4.701,3.742c1.296,1.102,1.343,2.831,0.959,4.172
		c-0.287,0.959-1.726,0.096-2.639,0c-0.622-0.048-1.246-0.191-1.869-0.287c-6.188-1.007-12.327-2.59-18.611-3.118
		c-10.023-0.815-20.047-1.678-30.168-1.391c-0.528,0-1.343-0.481-1.487,0.576c-0.143,0.863-0.335,1.774,0.624,2.35
		c0.488,0.288,1.002,0.53,1.535,0.72c5.659,1.965,10.936,4.796,16.117,7.77c3.357,1.919,6.667,4.077,10.359,5.372
		c0.672,0.241,1.344,0.768,2.159,0.048c-5.559-4.415-11.107-8.843-16.643-13.286c0.768-0.576,1.392-0.335,1.968-0.287
		c6.667,0.528,13.286,1.439,19.76,2.974c14.241,3.411,28.38,7.233,42.4,11.464c4.605,1.392,9.497,2.063,13.621,4.844
		c1.007,0.672,1.583,1.344,1.487,2.591c0.239,0.287,0.528,0.671,0.191,0.911c-0.382,0.239-0.719-0.241-1.006-0.481
		c-3.261-0.287-6.524-0.528-9.736-0.863c-9.257-0.911-18.466-2.207-27.818-1.917c-7.003,0.191-14.006-0.289-20.961,0.191
		c-9.88,0.672-19.76,1.965-29.594,3.022c-0.479,0.048-1.248-0.048-1.248,0.528c0,0.72,0.289,1.535,1.2,1.726
		c0.72,0.144,1.488,0.241,2.255,0.241c4.987,0.191,9.929,0.143,14.917,0.239c12.375,0.287,24.798-0.239,37.171,0.815
		c4.461,0.385,8.968,0.191,13.333,1.007c20.576,3.837,41.058,7.866,61.489,12.327c2.398,0.528,4.844,0.911,7.194,2.063
		c-1.102,1.007-2.541,1.296-3.165,2.733c-4.366,10.121-7.242,20.767-10.6,31.225c-0.576,1.774,0.624,3.837,2.398,4.318
		c3.261,0.911,6.474-1.104,7.05-4.414c0.385-2.159,0.768-4.318,1.056-6.522c0.096-0.72,0.335-1.104,1.056-1.344
		c2.637-1.054,5.227-2.159,7.865-3.213c3.886-1.583,7.531-3.548,10.553-6.475c2.685-2.541,4.939-5.468,4.987-9.401
		c0-1.2,0.287-1.965,1.248-2.685c4.413-3.405,8.346-7.29,12.181-11.271c3.694-3.885,7.819-7.289,11.992-10.646
		c0.479-0.385,0.863-0.959,1.631-0.672c3.598,1.439,7.146,2.831,11.174,4.412c-7.481,4.557-14.579,8.922-21.63,13.191
		c-0.335,0.191-0.72,0.287-1.054,0.382c-2.59,0.768-4.844,2.159-6.764,4.029c-7.481,7.433-11.32,16.26-10.888,26.955
		c0.287,7.194,4.412,10.6,11.414,8.968c12.28-2.878,22.783-14.628,24.605-27.531c0.479-3.598,1.054-7.146-1.535-10.264
		c-1.107-1.364-2.291-2.66-3.548-3.885c0.382-0.239,0.576-0.385,0.767-0.528c15.541-9.257,32.47-15.541,49.45-21.391
		c20.769-7.147,41.967-12.855,63.216-18.323c-0.479-0.095-1.007-0.239-1.487-0.335c-1.391,0.144-2.733,0.289-4.124,0.385
		c-5.852,0.528-11.704,1.15-17.411,2.685c-0.108,0.057-0.22,0.106-0.335,0.144c-0.528,0.239-1.15,0.287-1.869,0.287
		c-0.287,0-0.576,0-0.959,0.048c1.294-1.248,5.035-5.277,6.044-4.989l0.048-0.096h0.095c0-0.143,0.385-0.43,0.385-0.43
		c0.335-0.576,0.815-0.959,1.487-1.007c1.102-1.535,2.398-2.78,3.933-3.741c1.007-0.624,2.063-1.248,3.213-1.727h-0.047
		c3.209,0,6.371-3.873,9.723-5.221c-0.032-0.12-0.188-0.212-0.275-0.342c-4.796,0.672-9.496,1.439-14.101,3.165
		c-9.831,3.646-20.001,6.475-29.594,10.697c-14.821,6.474-29.594,12.949-43.839,20.672c-0.433,0.239-0.863,0.43-1.535,0.719
		c-0.385-3.452-0.719-6.764-1.102-10.072c-0.096-0.672,0.239-0.959,0.815-1.248c12.614-6.668,25.276-13.286,38.467-18.754
		c10.84-4.509,21.582-9.401,32.47-13.815c0.048-0.095,0.096-0.191,0.192-0.191h0.095c0.048,0,0.048,0.048,0.096,0.048
		c0.144,0.239,0.048,0.385-0.096,0.528c-0.048,0.048-0.095,0.048-0.191,0.096h-0.048c-2.877,4.124-5.516,8.442-7.433,13.19
		c0.767,0.191,1.054-0.048,1.343-0.335c2.255-2.398,4.509-4.748,6.716-7.146c4.268-4.701,8.777-9.162,14.054-12.806
		c0.334-0.239,0.911-0.43,0.671-0.958c-0.287-0.577-0.911-0.289-1.343-0.192c-4.94,1.007-9.88,1.919-14.773,3.07
		c-1.631,0.385-1.535-0.191-1.583-1.344c-0.048-3.933,0.528-7.77,0.672-11.703c0.045-1.707,0.437-3.389,1.15-4.94
		c1.965-4.509,3.933-8.968,5.947-13.477c1.007-2.255,1.583-4.652,1.968-7.051c0.624-3.837,1.102-7.722,1.487-11.607
		c0.624-5.949,2.733-11.56,3.741-17.458c1.296-7.484,2.351-15.013,5.133-22.159c2.494-6.331,4.892-12.662,7.435-18.945
		c3.5-8.538,7.962-16.643,10.073-25.757c0.719-3.166,1.534-6.044,0.095-9.162c-0.815-1.678-1.054-3.598-1.63-5.42
		c-0.439-1.313-0.522-2.72-0.241-4.076c0.959-4.892,1.392-9.736-1.245-14.293c-0.72-1.248,0.143-2.014,0.863-2.783
		c1.774-1.822,1.87-2.637,0.334-4.605c-1.774-2.206-3.5-4.461-5.419-6.522c-1.583-1.678-3.07-3.5-4.653-5.229
		c-1.104-0.671-1.007-1.102,0.239-1.535l0,0C419.612,179.245,422.346,178.045,425.175,177.181z M296.25,451.339
		c-0.767,5.853-3.165,11.847-8.49,16.356l0,0c-1.87,1.583-4.029,2.541-6.474,2.733c-2.927,0.239-5.229-1.631-4.94-4.557
		c0.576-6.427,2.302-12.471,6.618-17.506c2.637-3.022,6.475-3.838,10.312-2.398C295.532,446.88,296.299,447.982,296.25,451.339z
		 M352.127,136.173L352.127,136.173c-0.48-1.343-1.054-2.063-2.541-1.726c-1.776,0.431-2.734-0.335-3.502-1.919
		c-1.248-2.541-2.254-5.611-4.315-7.194c-2.064-1.583-5.325-1.631-8.058-2.302c-2.063-0.529-4.124-1.153-6.235-1.487
		c-4.557-0.768-8.49-2.734-12.232-5.468c-6.044-4.462-12.278-8.586-18.658-12.519c-2.063-0.143-4.029-0.72-6.044-1.2
		c-5.564-1.15-11.079-2.35-16.643-3.405c-1.343-0.239-1.583-1.246-1.678-2.157c-0.144-1.104,0.143-2.207,1.294-2.879
		c1.774-1.056,3.79-1.248,5.803-1.583c8.873-1.391,17.843-2.446,26.859-2.589c2.207-0.048,4.174,0.767,6.236,1.294
		c1.246,0.335,2.206,0.192,3.309-0.576c4.315-2.877,8.681-5.611,12.999-8.442c0.671-0.431,1.917-0.719,1.391-1.869
		c-0.073-0.158-0.17-0.304-0.287-0.433c-0.239-0.191-0.528-0.239-0.863-0.239c-0.335,0-0.672,0.048-1.007,0.048h-0.143
		c-4.892-0.144-9.258,1.391-13.334,3.98c-1.583,1.007-5.181,0.385-6.188-1.102c-6.81-10.312-16.451-17.745-25.613-25.757
		c-4.076-3.548-8.057-7.242-12.375-10.503c-1.102-0.815-1.583-2.877-0.863-3.933c0.959-1.439,2.207-0.815,3.357-0.287
		c3.694,1.631,7.242,3.5,10.551,5.852c11.271,8.057,23.359,14.868,35.397,21.678c0.335,0.191,0.672,0.385,1.006,0.528
		c1.822,0.624,2.783-0.191,2.494-2.111c-0.143-1.006-0.576-1.87-1.248-2.685c-9.736-11.464-20.001-22.448-30.072-33.623
		c-2.111-2.302-4.605-4.315-6.955-6.378c-1.87-1.583-3.357-3.405-4.414-5.564c-0.671-1.344-0.528-2.637,0.481-3.79
		c0.815-0.911,1.535-1.102,2.733-0.479c3.405,1.631,6.618,3.548,9.64,5.852c5.324,4.028,10.695,8.057,16.068,12.086
		c5.372,4.028,10.744,8.009,16.114,12.038c0.433,0.335,0.863,0.672,1.248,1.006c1.007,0.911,1.87,1.87,2.831,2.831l0.576,0.576
		c0.385,0.385,0.719,0.911,1.2,1.2c1.102,0.672,2.254,1.248,3.405,0.096c0.382-0.385,0.576-0.72,0.624-1.102
		c0-0.144,0.047-0.287,0-0.433c0-0.048,0-0.144-0.048-0.191c-0.164-0.544-0.461-1.039-0.863-1.44l-3.599-3.741
		c-2.014-2.063-4.028-4.077-6.235-5.947c-6.955-5.803-14.101-11.417-21.295-16.885c-3.646-2.78-7.914-4.652-11.895-6.955
		c-1.439-0.815-2.398-2.014-3.454-3.165c-0.719-0.863-0.91-1.919-0.479-3.022c0.433-1.056,1.487-1.007,2.398-1.104
		c1.439-0.143,2.733,0.385,3.981,1.007c9.257,4.557,18.369,9.449,27.196,14.726c0.719,0.43,1.439,0.863,2.159,1.342
		c4.939,3.165,9.64,6.764,14.293,10.408c2.206,1.726,3.837,4.315,5.659,6.57c0.767,0.959,0.239,1.822-0.481,2.494
		c-0.479,0.479-1.15,0.767-1.726,1.102c-0.624,0.43-1.439,0.815-1.2,1.726c0.191,0.815,1.102,1.007,1.822,1.15
		c1.055,0.192,2.207,0.144,3.166-0.287c3.356-1.391,6.187,0.959,8.345,3.309c0.576,0.624,0.815,1.87,1.87,1.487
		c1.102-0.43,1.248-1.63,1.15-2.733c-0.239-3.022-1.007-5.947-1.679-8.872c-1.774-7.531-5.372-14.341-8.345-21.439
		c-1.056-2.542-2.207-5.083-3.261-7.627c-0.576-1.391,0.191-2.637,0.959-3.646c0.624-0.815,1.63-0.096,2.446,0.287
		c3.022,1.344,4.748,3.79,6.235,6.618c1.583,3.022,3.548,5.803,5.229,8.729c2.877,5.086,6.426,9.882,8.729,15.205
		c3.357,7.77,7.627,15.156,9.64,23.502c1.726,7.387,4.172,14.63,5.035,22.256c0.335,2.877-0.191,5.659,0.144,8.442
		c0.671,5.563-0.144,10.84-2.446,15.923c-0.624,1.391-0.433,2.733,0.239,4.172c5.035,10.649,9.21,21.633,13.382,32.663
		c0.528,1.439,0.287,2.014-1.2,2.446c-9.64,2.831-19.28,5.755-28.923,8.681c-1.391,0.433-1.822,0.048-2.254-1.199
		C356.759,149.085,354.408,142.641,352.127,136.173z M291.598,196.99L291.598,196.99c3.934-1.344,7.866-1.87,11.991-0.624
		c0.095,0.048,0.191,0.048,0.287,0.096c5.181,1.582,10.455,2.829,15.397,5.178c0.815,0.385,1.678,0.768,2.255,1.535
		c3.213,2.303,6.139,4.94,8.585,8.105c3.79,4.892,7.579,9.834,11.127,15.445c-0.222-0.074-0.442-0.171-0.665-0.258l-0.025-0.029
		c-1.293-0.558-2.523-1.25-3.674-2.063c-4.349-2.63-8.849-5-13.478-7.098c-2.159-0.959-4.315-1.583-6.618-2.016
		c-6.044-1.15-12.086-1.343-18.178-0.815c-1.678,0.144-3.404,0-5.083,0c-1.248,0-1.822-0.576-1.822-1.822
		c0-4.7,0.239-9.449-1.198-14.006C290.207,197.662,290.783,197.279,291.598,196.99z M290.375,231.584L290.375,231.584
		c0.047-0.144,0.095-0.287,0.143-0.385c0.048-0.097,0.048-0.191,0.096-0.287c0.048-0.096,0.048-0.191,0.096-0.335
		c0.047-0.096,0.047-0.191,0.095-0.287s0.048-0.239,0.096-0.335c0-0.095,0.048-0.191,0.048-0.287c0-0.096,0.048-0.239,0.048-0.335
		c0-0.095,0.047-0.191,0.047-0.287c0-0.095,0.048-0.239,0.048-0.335c0-0.095,0.048-0.191,0.048-0.287
		c0-0.095,0.048-0.239,0.048-0.335c0-0.095,0.048-0.191,0.048-0.287c0-0.095,0.047-0.239,0.047-0.335c0-0.095,0-0.191,0.048-0.287
		c0-0.095,0-0.239,0.048-0.334v-5.325c-0.048-1.63,0.528-2.254,2.159-2.207c1.62,0.04,3.241-0.016,4.861-0.089
		c0.49,0.029,0.99,0.055,1.494,0.078c0.814-0.056,1.63-0.089,2.446-0.096c2.552-0.059,5.103,0.102,7.627,0.481
		c4.363,0.335,8.394,1.15,10.983,3.261c1.87,0.815,3.742,1.822,5.564,2.877c4.413,2.639,8.825,5.373,13.238,8.059
		c0.911,0.576,1.726,1.248,2.35,2.159c1.44,2.063,2.974,4.172,4.462,6.283c0.239,0.335,0.622,0.72,0.287,1.15
		c-0.093,0.136-0.228,0.236-0.385,0.287c0,0.003,0.001,0.003,0.003,0.004c-0.366,0.074-0.688-0.06-1.01-0.243
		c-1.965-1.104-3.981-2.159-5.947-3.261c-6.859-3.838-14.101-6.572-21.678-8.634c-0.661-0.182-1.323-0.36-1.985-0.536
		c-2.143-0.631-4.147-1.233-6.455-1.527l-3.022-0.672c-0.096,0.048,0.095,0.239,0.335,0.481c0.094,0.084,0.174,0.181,0.239,0.287
		c0.239,0.287,0.479,0.479,0.815,0.671c0.048,0,0.285,0.127,0.385,0.192c4.557,2.302,12.229,3.742,17.843,6.331l-0.096-0.048
		l-0.287-0.143c0.069,0.034,0.147,0.069,0.235,0.104l0.052,0.039c0.433,0.191,0.863,0.433,1.248,0.624
		c3.117,1.631,5.947,3.646,8.777,5.803l5.372,4.124c8.057,5.852,12.999,13.767,15.397,23.359c0.048,0.287,0.144,0.576,0.191,0.863
		l0.192,0.287c0.382,0.576,0.479,1.296,0.335,1.919c0.047,0.143,0.047,0.287,0.095,0.43c-0.095,1.392-1.2,0.815-1.822,0.815
		c-4.172-0.143-8.2-1.054-12.181-2.206l-0.127-0.025c-1.026-0.301-2.355-0.765-3.302-1.066c-4.22-1.487-8.201-3.261-12.279-4.748
		c-5.037-1.774-8.97-5.229-13.238-8.251c-7.051-4.989-13.863-10.216-20.001-16.308c-0.624-0.624-1.248-1.296-1.583-2.111
		c-0.437-1.015-0.853-2.039-1.248-3.07l-0.719-1.87c-0.144-0.382-0.289-0.767-0.481-1.2c0-0.048,0-0.048-0.048-0.095
		c-0.048-0.048-0.048-0.144-0.048-0.192v-0.048c0-0.047-0.047-0.143-0.047-0.191C290.183,232.975,290.135,232.256,290.375,231.584z
		 M323.596,235.728c-0.131-0.059-0.248-0.103-0.391-0.176C323.349,235.626,323.467,235.67,323.596,235.728z M318.937,233.922
		c-0.127-0.032-0.255-0.083-0.385-0.129C318.682,233.841,318.81,233.89,318.937,233.922z M308.625,229.989
		c-0.235,0.14-0.573,0.08-0.657,0.375l-0.016-0.003c-0.078-0.377-0.03-0.518,0.076-0.55c0.2,0.083,0.387,0.143,0.56,0.164
		L308.625,229.989z M286.801,240.829L286.801,240.829c0.138-0.457,0.405-0.693,0.679-0.632c0.013,0.02,0.027,0.034,0.041,0.056
		c0.144,0.047,0.287,0.191,0.433,0.479c1.534,3.07,3.644,5.611,5.996,7.962c2.493,2.398,5.181,4.605,7.77,6.955
		c5.373,4.838,10.825,9.587,16.356,14.244c3.548,3.022,7.818,4.558,12.375,5.755c10.36,2.639,20.961,3.646,31.464,5.086
		c2.783,0.382,5.276,1.294,7.481,3.117h-0.144c0.192,0.144,0.335,0.239,0.481,0.385c-5.901-0.863-11.799-0.767-17.7-0.911
		c-6.474-0.143-12.805,0.624-19.184,1.344c-2.302,0.239-4.509,0-6.716-0.529c-6.14-1.391-11.942-3.885-17.746-6.331
		c-6.57-2.783-12.038-7.05-17.219-11.751c-0.385-0.385-0.767-0.719-1.15-1.102c-1.763-1.747-3.101-3.62-4.048-5.606l-0.04-0.091
		c-0.019-0.039-0.032-0.078-0.051-0.116c-1.798-4.232-1.701-8.953-0.322-14.141C285.938,243.612,286.37,242.22,286.801,240.829z
		 M342.344,343.949c-0.144,0.959-0.241,1.968-0.959,3.309l-0.144-0.863c-0.048,0.144-0.143,0.287-0.239,0.481
		c-0.815-4.94-1.344-9.497-1.487-14.102c-0.048-1.054,0.672-1.294,1.344-1.534c1.102-0.385,2.493-1.631,3.213-1.056
		c0.096,0.096,0.191,0.191,0.239,0.287c0.048,0.048,0.096,0.048,0.144,0.096c0.863,0.672-0.144,2.206-0.385,3.357l0,0
		C343.446,337.283,342.919,340.593,342.344,343.949z M338.842,324.908h-1.248c-0.767,0-1.535,0.192-2.302,0.241
		c-0.863,0-1.391,0.382-1.726,1.15c-0.335,0.767-0.768,1.439-1.152,2.207c-0.047,0.095-0.095,0.191-0.143,0.334
		c-1.535,3.694-3.694,6.86-6.331,9.593c-0.576,0.624-1.199,1.2-1.822,1.774c-1.598,1.437-3.262,2.797-4.989,4.076
		c-2.829,2.016-6.092,3.262-9.353,4.462l-0.719,0.287c-0.228,0.087-0.452,0.183-0.672,0.287c-0.144,0.047-0.239,0.095-0.385,0.143
		c-0.191,0.048-0.43,0.144-0.624,0.191c-0.719,0.289-1.294,0.72-0.911,1.824c0.385,1.197,1.248,1.534,2.351,1.582
		c0.239,0,0.528,0,0.815-0.048c1.016-0.098,2.015-0.324,2.974-0.671c0.959-0.335,1.919-0.768,2.926-1.2
		c0.672-0.287,1.344-0.576,2.064-0.816c-0.577,2.446-0.911,4.701-1.679,6.812c-0.144,0.382-0.287,0.719-0.433,1.054
		c-0.572,1.288-1.163,2.568-1.774,3.838c-0.387,0.845-0.802,1.677-1.248,2.493c-2.302,4.605-4.891,9.016-8.105,13.095
		c-0.649,0.832-1.337,1.631-2.063,2.398c-1.529,1.634-3.215,3.112-5.035,4.413c-0.679,0.491-1.367,0.971-2.063,1.44
		c-1.37,0.851-2.762,1.667-4.174,2.446c-1.15,0.624-2.254,1.15-3.404,1.678l-1.296,0.576c-0.335,0.144-0.72,0.287-1.055,0.433
		c-0.287,0.095-0.576,0.239-0.863,0.335c-0.815,0.334-1.63,0.622-2.446,0.911c-0.239,0.095-0.479,0.191-0.767,0.239
		c-0.856,0.294-1.72,0.565-2.589,0.815c-2.686,0.806-5.407,1.493-8.153,2.063c-1.056,0.239-2.159,0.433-3.262,0.624
		c-0.143,0-0.239,0.048-0.382,0.048c-1.104,0.191-2.159,0.335-3.262,0.528c-1.15,0.144-2.302,0.335-3.5,0.481
		c-3.933,0.479-7.818,0.239-11.655-0.335c-0.144,0-0.287-0.048-0.433-0.096c-0.191-0.048-0.383-0.096-0.576-0.143
		c-1.002-0.288-1.969-0.691-2.879-1.201c-1.248-0.671-2.398-1.391-3.644-2.014c-0.884-0.442-1.748-0.923-2.591-1.439
		c-1.102-0.672-2.207-1.344-3.213-2.111c-1.968-1.439-3.694-3.118-4.653-5.564c-0.53-1.33-1.138-2.627-1.822-3.885
		c-0.191-0.385-0.431-0.719-0.624-1.054c-1.583-2.59-3.5-5.037-5.515-7.338c-0.816-0.959-1.631-1.919-2.494-2.831
		c-0.433-0.479-0.816-0.958-1.248-1.391c-1.677-1.885-3.404-3.724-5.181-5.516l-1.344-1.343c-1.821-1.774-3.741-3.454-5.755-4.94
		c-0.479-0.385-1.006-0.767-1.534-1.102c-1.56-1.122-3.176-2.163-4.844-3.118c-0.406-0.229-0.807-0.468-1.2-0.72
		c-0.385-0.239-0.816-0.528-1.201-0.767c-5.467-3.646-9.88-8.442-12.373-14.821c-0.056-0.144-0.125-0.284-0.206-0.417
		c-0.863-1.853-2.137-2.429-4.391-2.473c-1.774,0-3.503-0.287-5.037-0.959l0.001,0.001l-0.056-0.037
		c-0.959-0.385-1.822-0.959-2.639-1.679l-0.504-0.319c-0.442-0.521-0.763-1.153-1.174-1.792c-2.859-4.251-5.513-8.589-7.707-13.155
		l0.056,0.166l-0.107-0.271l0.049,0.104c-0.448-1.32-0.933-2.626-1.454-3.918c-0.25-0.596-0.498-1.165-0.713-1.703
		c-0.223-0.774-0.342-1.464-0.342-2.087c0-0.334,0-0.719,0.047-1.006c0.048-0.192,0.096-0.433,0.144-0.624
		c0.048-0.096,0.048-0.192,0.096-0.287c0.048-0.192,0.143-0.385,0.239-0.576c0.528-1.007,1.391-1.919,2.541-2.831
		c0.433-0.335,0.864-0.672,1.344-1.007c0.911-0.671,1.87-1.246,2.783-1.869c1.427-0.863,2.883-1.678,4.363-2.446
		c5.42-2.783,11.175-4.749,17.124-6.284c0.335-0.095,0.671-0.143,1.054-0.239c0.672-0.143,1.392-0.191,2.111-0.287
		c0.702-0.054,1.406-0.087,2.111-0.095c0.72,0,1.439-0.048,2.111-0.048c0.335,0,0.72,0,1.056-0.048
		c2.398-0.096,4.796-0.239,7.194-0.385c3.598-0.239,7.194-0.528,10.792-0.863c3.598-0.335,7.194-0.72,10.792-1.102
		c6.524-0.768,12.806-2.303,18.802-4.796c1.248-0.529,2.494-1.104,3.694-1.679c0.72-0.385,1.487-0.719,2.207-1.102
		c0.43-0.239,0.815-0.433,1.248-0.672c2.877-1.535,5.755-3.022,8.537-4.653c0.287-0.382,0.624-0.528,1.104-0.671
		c0.048,0,0.143-0.048,0.191-0.048v0.239c-0.048,0.287-0.191,0.479-0.385,0.672c-0.144,0.095-0.287,0.191-0.43,0.287
		c-2.783,3.548-6.618,5.996-9.929,8.968c-0.335,0.287-0.672,0.576-1.007,0.911c-1.054,0.863-2.111,1.774-3.309,2.733
		c4.172,0,8.202-0.479,11.942-1.583c5.42-1.582,10.36-4.412,14.582-8.729c0.991-1.032,1.919-2.121,2.783-3.261
		c2.063-2.733,3.933-5.947,5.564-9.64c1.294,4.652,4.652,7.914,7.481,11.464c0.191,0.239,0.385,0.528,0.576,0.767
		c0.191,0.241,0.385,0.529,0.576,0.768c0.335,0.479,0.72,0.863,1.2,1.2c0.287,0.239,0.624,0.479,0.911,0.672
		c0.335,0.239,0.624,0.43,0.911,0.671c0.143,0.096,0.287,0.241,0.433,0.335c2.094,1.657,4.22,3.272,6.378,4.844
		c1.44,1.055,2.879,2.063,4.366,3.07c2.207,1.535,4.413,3.022,6.57,4.557c2.974,2.063,6.092,3.79,9.353,5.324
		c0.816,0.385,1.631,0.72,2.446,1.104c2.481,1.047,5.009,1.976,7.579,2.783l0.433,0.143c1.582,0.433,3.309,0.576,4.987,0.768
		c0.624,0.047,1.248,0.143,1.822,0.191c0.335,0.048,0.768,0.239,1.199,0.479c0.433,0.241,0.911,0.624,1.344,1.007
		c1.487,1.344,2.877,3.261,2.974,4.412c0,0.192,0,0.335-0.048,0.481c-0.048,0.095-0.048,0.143-0.096,0.191
		c-0.191,0.335-0.479,0.624-0.671,0.959c-0.576,1.007-1.201,2.014-1.679,3.07c-0.096,0.191-0.143,0.335-0.239,0.528
		c-0.624,1.583-0.863,3.261,0.048,5.229c2.302-2.303,4.363-4.748,5.85-7.531c0.433-0.768,0.768-1.535,1.104-2.351
		c0.239-0.528,0.43-1.102,0.624-1.678c0.191-0.528,0.047-1.15,0.191-1.678c0.191-0.576-0.479-1.392-0.191-1.776
		c0-0.047,0.047-0.047,0.095-0.095c0.085-0.068,0.183-0.117,0.287-0.144c0.192-0.047,0.385-0.095,0.529-0.095
		c0.382-0.048,0.719-0.096,1.102-0.096c0.959,0,1.87,0.144,2.783,0.43c0.576,0.192,0.382,0.911,0.335,1.44v0.095
		c-0.096,1.727-0.816,3.311-1.44,4.844c-0.139,0.376-0.299,0.745-0.479,1.104c-1.054,2.589-2.159,5.227-3.837,7.481
		C345.989,321.839,343.255,324.765,338.842,324.908z M273.133,405.103L273.133,405.103c-1.809,0.287-3.637,0.432-5.468,0.433
		c-1.87,0-3.694-0.192-5.564-0.624c-1.006-0.241-1.391-0.911-1.296-1.727c0.048-0.528,0.433-0.528,0.816-0.528
		c0.239-0.048,0.528,0,0.767,0.048h3.598c0.529,0.048,1.056,0.048,1.631,0.048c1.596,0.006,3.187-0.155,4.748-0.481
		c0.287-0.047,0.576-0.095,0.816-0.047c0.622-0.048,1.102,0.095,1.15,1.054C274.332,404.144,274.523,404.912,273.133,405.103z
		 M183.73,362.079L183.73,362.079c0.958-3.933,0.576-8.009,1.102-11.99c0.096-0.815,0.528-0.72,1.007-0.287
		c0.765,0.719,1.484,1.484,2.25,2.203l0.004,0.004l0.287,0.287c0.385,0.335,0.433,0.767,0.239,1.2
		c-1.477,2.995-2.964,5.984-4.461,8.968c-0.143-0.048-0.335-0.096-0.479-0.143C183.682,362.224,183.73,362.176,183.73,362.079z
		 M338.122,295.603L338.122,295.603c-1.678-0.191-3.356-0.528-5.083-0.479c-3.404,0.096-6.139-1.678-9.016-3.213h0.335
		c-0.239-0.144-0.479-0.241-0.72-0.385c0.481,0.048,1.007,0.048,1.488,0.096c0.576,0.047,1.102,0.191,1.678,0.287
		c4.748,1.006,9.353-0.385,14.054-0.864c4.843-0.528,9.016,1.201,13.093,3.551c-0.096,0-0.143,0-0.239,0.048
		c0.191,0.095,0.385,0.239,0.624,0.334C348.914,295.795,343.543,296.177,338.122,295.603z M158.5,234.306
		c1.583-3.022,3.357-5.898,5.229-8.681c0.959-1.391,1.917-2.783,2.926-4.124c0.481-0.672,1.007-1.344,1.535-2.016
		c1.535-2.014,3.118-3.98,4.748-5.898c1.631-1.919,3.261-3.837,4.94-5.755c1.678-1.919,3.357-3.789,4.987-5.707
		c0.672-0.72,1.487-1.344,2.303-1.968l0.513-0.592c1.575-1.356,2.942-2.756,4.763-4.204l0.241-0.191
		c0.43-0.385,0.863-0.815,1.343-1.248c4.796-4.557,10.36-8.105,15.923-11.655c0.562-0.369,1.135-0.701,1.717-1.017
		c0.732-0.331,1.472-0.648,2.216-0.951c0.192-0.096,0.385-0.191,0.576-0.239c1.135-0.473,2.287-0.906,3.454-1.296
		c0.768-0.239,1.583-0.479,2.35-0.72c2.783-0.815,5.564-1.486,8.299-2.35c5.083-1.63,10.36-2.35,15.636-2.302
		c0.767,0,1.487,0.048,2.255,0.048c3.933,0.191,7.77,1.726,11.366,3.309c1.583,0.72,3.166,1.391,4.748,2.159l1.15,0.576
		c1.152,0.576,2.351,1.15,3.454,1.822c0.768,0.43,1.487,0.863,2.254,1.294c0.72,0.481,1.488,0.913,2.159,1.44
		c1.449,1.008,2.827,2.114,4.125,3.309c4.363,4.028,7.433,8.777,9.257,14.388c1.296,4.029,2.255,8.153,2.591,12.327
		c0.334,4.029-0.864,7.962-1.919,11.847c-0.144,0.576-0.385,0.72-0.576,0.672c-0.287-0.096-0.433-0.433-0.672-0.72
		c-1.439-1.678-2.879-3.309-4.318-4.987c-5.611-6.524-12.327-11.271-20.815-13.67c-6.57-1.822-13.19-2.877-19.856-3.07
		c-5.324-0.143-10.745,0.815-16.068,1.822c-4.22,0.815-8.442,1.487-12.614,2.255c-2.734,0.479-5.229,1.726-7.723,2.829
		c-1.19,0.53-2.382,1.056-3.611,1.51l-0.371,0.087c-7.531,2.637-13.907,7.182-20.479,11.402c-1.798,1.184-3.289,2.778-4.85,4.342
		l-0.186,0.167l-1.296,1.296c-3.022,2.926-5.996,5.901-9.257,8.586c-1.487,2.063-3.5,3.5-5.372,5.324
		C156.053,240.348,156.965,237.185,158.5,234.306z M157.165,253.537L157.165,253.537c0.241-0.385,0.481-0.72,0.816-1.056
		c6.667-6.57,13.044-13.525,20.432-19.28c12.279-9.592,25.661-17.076,41.056-20.385c3.742-0.815,7.531-1.391,11.414-1.391
		c4.414-0.048,8.825-0.191,13.191-0.335c8.442-0.287,16.212,2.111,23.311,6.475c2.624,1.611,5.055,3.516,7.248,5.678l0.274,0.272
		c2.467,2.463,4.626,5.217,6.427,8.202c1.582,2.589,1.15,5.42,0.622,8.251c-1.439,8.105-6.331,14.101-11.846,19.712
		c-5.277,5.373-11.895,8.873-18.035,12.952c-8.681,5.802-18.61,8.057-28.731,9.544c-12.614,1.87-25.419,2.063-38.081,3.741
		c-4.605,0.577-9.258,0.959-13.863,1.776c-5.468,1.006-10.168,3.692-13.573,8.2c-1.248,1.679-2.014,3.742-3.213,6.044
		c-0.087-0.233-0.15-0.473-0.191-0.719c-0.672-2.733-0.241-4.989,0.719-7.147c2.207-4.891,5.901-8.345,10.649-10.792
		c8.299-4.363,17.554-5.227,26.427-7.481c7.195-1.822,14.582-2.877,21.729-4.844c9.831-2.733,19.424-6.235,28.489-10.984
		c4.796-2.493,9.785-5.035,13.095-9.688c2.398-3.404,3.022-7.098,2.398-11.127c-0.096-0.672-0.287-1.006-0.528-1.054
		c-0.239-0.048-0.576,0.143-1.007,0.528c-3.598,3.213-7.338,6.283-11.414,8.968c-6.379,4.125-13.43,6.62-20.721,8.395
		c-11.607,2.877-23.309,5.324-35.253,6.187c-8.442,0.576-16.739,2.111-24.748,4.844c-6.811,2.35-13.718,4.7-19.184,9.785
		c-0.672,0.624-1.488,1.15-2.59,1.965c0.048-0.287,0.096-0.528,0.144-0.767c-0.192,0.143-0.335,0.239-0.529,0.382l0.02-0.096
		c0.162-0.127,0.298-0.252,0.469-0.337c0.334-1.583,0.958-2.831,1.678-3.981C148.532,267.158,152.849,260.347,157.165,253.537z
		 M205.025,266.153l10.457-1.726l1.821-0.335c-2.157,1.15-4.509,1.678-6.859,2.159c-11.175,2.78-22.591,4.412-33.91,6.522
		c-8.153,1.535-15.445,4.748-22.063,9.736c-0.382,0.287-0.815,0.624-1.246,0.863c-0.529,0.335-0.768,0.239-0.864-0.191
		c-0.047-0.096-0.047-0.241-0.047-0.385c-0.192-2.879,0.671-4.268,3.309-5.468c3.598-1.631,7.194-3.357,10.792-5.035
		c4.7-2.159,9.736-2.831,14.821-3.357C189.15,268.073,197.061,267.065,205.025,266.153z M163.68,78.618
		c0.191,0.528,0.239,0.958-0.335,1.294c-1.726,1.056-3.405,2.111-5.133,3.166c-0.144,0.096-0.335,0.143-0.911,0.385
		c-0.143-0.241-0.335-0.672-0.624-1.007L145.886,70.08c-0.481-0.576-0.959-1.102,0-1.631c3.548-2.014,6.235-5.276,9.977-7.002
		c0.959-0.433,1.296-0.481,1.774,0.576C160.034,67.394,161.667,73.102,163.68,78.618z M134.423,53.388L134.423,53.388
		c5.083-1.822,10.072-3.885,15.108-5.898c7.29-2.879,13.91-7.003,20.767-10.649c0.72-0.385,1.391-0.863,2.111-1.248
		c0.624-0.287,1.15-1.15,1.968-0.72c0.958,0.529,0.622,1.535,0.622,2.687c0.241,1.198-0.528,2.206-1.63,3.213
		c-6.907,6.427-14.101,12.518-21.487,18.417c-2.926,2.35-6.522,3.452-9.785,5.229c-0.671,0.334-1.054,0-1.439-0.481
		c-2.398-3.07-4.748-6.187-7.146-9.257C132.601,53.58,133.847,53.628,134.423,53.388z M90.921,119.002
		c-5.468-16.932-11.223-33.766-15.78-50.985c-1.056-3.981-1.487-8.153-2.255-12.232c-0.239-1.2,0.577-1.822,1.344-2.254
		c1.056-0.529,1.102,0.719,1.487,1.2c7.531,10.407,12.662,22.158,18.802,33.333c1.822,3.357,3.885,6.618,5.852,9.929
		c0.382,0.625,0.671,1.153,1.63,0.816c1.056-0.385,0.863-1.056,0.672-1.822c-0.768-3.454-2.542-6.57-3.837-9.834
		c-0.481-1.15-0.481-2.063,0.047-3.213c2.734-5.659,6.572-10.6,9.593-16.019c2.78-4.94,6.331-9.353,9.016-14.341
		c1.391-2.541,4.557-2.974,6.667-0.958c1.439,1.342,2.589,2.877,3.598,4.557c3.452,5.611,8.248,10.12,12.901,14.725
		c3.261,3.261,6.57,6.427,10.025,9.401c1.15,1.006,1.343,2.541,1.965,3.837c0.241,0.479,0.048,0.863-0.382,1.102
		c-0.241,0.144-0.481,0.241-0.624,0.385c-2.831,2.398-5.516,2.063-8.825,0.385c-6.57-3.309-12.229-7.675-17.267-12.901
		c-0.191-0.192-0.385-0.335-0.576-0.481c-2.302-1.726-2.398-1.63-3.405,1.007c-1.054,2.685-1.726,5.468-2.926,8.057
		c-0.433,0.911,0.239,1.87,0.911,2.542c0.767,0.767,1.296,1.965,2.685,1.774c0.624-0.096,0.959-0.433,1.102-1.102
		c0.335-1.583,0.768-3.166,1.201-5.131c5.227,4.412,11.031,7.818,16.786,11.655c-2.014,1.15-3.79,2.159-5.564,3.165
		c-14.245,8.01-28.537,16.019-42.734,24.079C91.88,120.298,91.399,120.441,90.921,119.002z M95.908,130.13
		c-0.528-1.102-0.335-1.583,0.672-2.207c17.231-10.65,34.434-21.345,51.609-32.087c0.911-0.576,1.774-0.241,2.637-0.433
		c3.022-0.672,5.949-1.583,8.586-3.261c0.191-0.144,0.528-0.239,0.624-0.433c1.919-4.267,6.187-5.707,9.785-7.385
		c8.2-3.742,16.499-7.194,23.741-12.662c1.678-1.296,3.454-0.816,4.701,0.143c1.15,0.911,2.063,2.494,1.582,4.366
		c-0.576,2.254-1.439,4.172-3.213,5.803c-6.907,6.426-12.519,13.862-17.602,21.823c-4.557,7.194-9.066,14.341-12.471,22.159
		c-0.671,1.583-1.774,2.831-2.926,4.124c-4.796,5.468-10.503,9.688-17.075,12.758c-1.44,0.672-2.064,1.679-2.159,3.166
		c-0.096,1.2-0.481,2.35-0.576,3.548c-0.192,3.07-1.2,5.707-3.79,7.627c-0.815,0.624-0.911,1.63-1.2,2.493l-5.468,18.274
		c0,0.143,0,0.287-0.048,0.385c0,0.287,0.048,0.624-0.335,0.767c-0.815,0.191-1.534-0.048-2.254-0.433
		c-8.922-2.063-17.746-4.315-26.572-6.665c-1.102-0.241-2.159-0.577-3.309-0.72c-1.774-0.239-1.919-1.056-1.104-2.398
		c1.153-5.612,2.494-11.175,5.949-15.923c0.767-1.056,0.72-1.919,0.048-3.07C101.951,143.56,99.074,136.749,95.908,130.13z
		 M77.346,203.273L77.346,203.273c-0.241-0.039-0.482-0.087-0.72-0.143c-0.863-0.241-1.15-0.768-1.007-1.968
		c1.056-9.497,2.064-18.993,3.07-28.539c0.048-0.239,0.048-0.43,0.096-0.622c0.048-0.096,0.096-0.192,0.096-0.289
		c0.143-0.287,0.43-0.382,0.767-0.382c0.191,0,0.479,0.048,0.768,0.143c12.901,3.405,25.756,6.812,38.658,10.216
		c12.901,3.405,25.804,6.764,38.705,10.169c1.248,0.335,1.631,0.719,1.2,2.014l-5.563,18.226c-0.191,0.719-0.335,1.487-1.15,1.487
		c-0.096,0-0.241,0-0.385-0.048c-6.907-0.959-13.813-1.87-20.719-2.831c-4.51-0.624-8.97-1.246-13.478-1.869
		C104.301,206.919,90.824,205.097,77.346,203.273z M87.947,221.692L87.947,221.692c-0.241-0.72-0.192-1.296,0-1.726
		c0.091-0.28,0.203-0.553,0.334-0.816c0.048,0.096,0.048,0.192,0.096,0.289C88.474,220.06,88.234,220.732,87.947,221.692z
		 M206.414,400.738L206.414,400.738v-0.047c-0.479,0.047-0.528,0.334-0.767,0.479c-0.096,0.096-0.239,0.191-0.385,0.287
		c-0.245,0.192-0.501,0.368-0.767,0.528c-0.624,0.433-1.248,0.959-1.535,1.727c0,0.143,0,0.095-0.048,0.191
		c-0.048,0.096,0,0.287-0.048,0.287h0.144v0.287c-0.481,1.391-0.72,2.398-0.959,3.118c-0.048,0.191-0.144,0.335-0.191,0.479
		c-0.048,0.144-0.144,0.239-0.192,0.335c-0.051,0.089-0.116,0.169-0.191,0.239c-0.144,0.144-0.287,0.192-0.481,0.239h-0.143
		c-0.287,0-0.576-0.095-1.007-0.239c-0.672-0.239-1.535-0.576-2.734-0.959c-0.095-0.047-0.191-0.047-0.239-0.095
		c-0.07-0.052-0.153-0.086-0.239-0.096c-0.192-0.096-0.335-0.144-0.528-0.239h-0.192v-0.192h-0.048
		c-1.439-0.479-2.78-0.767-4.076-1.294c-0.768-0.287-1.583-0.528-2.398-0.863c-1.007-0.241-2.014-0.72-3.022-0.72
		c-2.783-0.959-5.612-1.439-8.299-2.398c-0.239,0-0.382,0.048-0.863,0v0.048c-1.919-0.385-3.452-0.863-5.276-1.2
		c-1.776-0.287-2.446-1.2-2.255-2.974c0.096-0.72,0.048-1.583,0.048-2.303c0-0.239-0.048-0.335-0.048-0.815
		c-0.287-0.481-0.72-1.055-1.102-1.679c-0.144-0.191-0.192-0.334-0.287-0.528c-0.239-0.239-0.72-0.479-0.72-0.767
		c-0.479-0.096-0.287-0.192-0.431-0.287c-1.488-1.392-1.056-3.261-0.864-5.037c0-0.191,0.048-0.382,0.048-0.576
		c0.048-0.382,0.096-0.767,0.144-1.102c0.048-0.191,0.048-0.385,0.095-0.528c0.768-2.974,0.959-5.803-2.254-7.579
		c-0.385-0.239-0.624-0.481-1.104-0.816v0.096c-1.439-1.15-3.022-2.35-4.507-3.309c-0.241-0.479-0.289-0.576-0.768-0.767
		c-2.398-1.296-4.318-2.783-6.188-4.557c-0.479-0.287-1.006-0.529-1.487-0.815l0.192-0.001c-0.287-0.479-0.624-0.43-0.863-0.671
		c-0.385-0.287-0.72-0.481-1.2-0.768c-2.399-2.063-5.66-3.981-8.251-6.331c-0.911-0.287-1.487-1.007-2.207-1.583v-0.095
		c-2.541-1.774-5.035-3.502-7.531-5.42h0.048c-0.287,0-0.287-0.241-0.768-0.481c-1.439-0.719-2.877-1.917-4.124-2.877
		c-0.385-0.481-0.767-0.481-1.15-0.481c-1.15-0.958-2.159-1.391-3.118-2.254c-0.385-0.239-0.719-0.528-1.2-0.816
		c-2.877-1.774-5.563-3.452-7.914-5.754l-0.239-0.241c-0.143-0.143-0.287-0.334-0.431-0.479c-0.214-0.262-0.392-0.553-0.529-0.863
		c-0.095-0.239-0.191-0.481-0.239-0.768v0.385c-1.726-1.87-2.877-4.029-4.315-5.996l-0.144-0.287
		c-0.048-0.096-0.096-0.191-0.096-0.287c-0.048-0.192-0.048-0.385-0.048-0.528c0.048-0.385,0.241-0.72,0.481-1.055
		c0-0.096,0.048-0.239,0.048-0.385c0.479-3.07,2.159-5.85,3.357-8.729v-0.719c0,0,0-0.433-0.048-0.624
		c-0.048-0.144-0.048-0.192-0.096-0.287l-0.096-0.096c-0.093-0.092-0.208-0.158-0.334-0.191h-0.144c-0.287,0-0.672,0.143-1.15,0.43
		c-0.399,0.246-0.77,0.535-1.104,0.863c-0.143,0.096-0.239,0.192-0.382,0.287c-0.096,0.096-0.192,0.241-0.287,0.385
		c-0.048,0.048-0.096,0.144-0.144,0.191c0,0.048-0.048,0-0.048,0c0,0.048-0.048,0-0.048,0v0.048
		c-0.958,1.104-2.398,2.063-3.646,3.07c-0.239,0.239-0.671,0.528-0.671,0.768v-0.048h-0.144c-0.382,0.479-0.911,0.479-1.439,0.239
		c-2.063-0.911-4.124-1.774-6.188-2.733c-0.479-0.239-0.719-0.767-0.815-1.248c-0.053-0.207-0.1-0.415-0.143-0.624
		c-0.048-0.191-0.096-0.335-0.144-0.528v0.096c-0.72-3.357,0.433-5.853,1.056-8.729c0.047-0.241,0.095-0.481,0.095-0.72
		c0.481-2.783,0.672-5.755,1.487-8.442v-1.248h0.009c-0.438-3.067-0.448-6.092-0.68-9.162c0-0.528,0.047-1.054,0.047-1.582
		c-0.287-5.709-0.671-11.417-0.863-17.124c-0.43-11.942-1.391-23.837-1.054-35.779c0.048-1.919-0.335-3.551-0.959-5.133
		c-0.144-0.385-0.335-0.768-0.528-1.153c-0.576-1.102-1.248-2.157-1.968-3.261c-1.054-1.487-1.439-2.926-0.959-4.748
		c0.72-2.783,1.248-5.659,1.774-8.49c0.241-1.344,0.625-2.063,2.159-1.535c0.577,0.191,1.248,0.144,1.87,0.191
		c2.542,0.577,5.181,0.624,7.723,1.248c0.239,0,0.334,0.048,0.671,0.192c2.255,0.095,4.844,0.43,7.242,0.959
		c0.241,0,0.529,0.047,0.768,0.191c2.878,0.385,5.755,0.719,8.633,1.199c0.672,0,1.248-0.048,1.87,0.335
		c0.096,0,0.239-0.048,0.239,0c3.357,0.385,5.996,0.624,8.873,1.102h-0.287v0.096c1.917,0.239,3.165,0.479,4.653,0.719
		c1.534,0.241,3.117,0.624,4.604,0.624h0.048c0.144,0,0.239,0.048,0.335,0.048c0.096,0.048,0.433,0.096,0.433,0.096
		c0.958,0.048,1.343,0.576,1.487,1.391c0.767,4.557,1.391,9.114,2.35,13.669c0,0.335,0.191,0.624,0.143,0.911
		c0.144,0.768,0.241,1.487,0.385,2.207c0.433,2.206,0.815,4.412,1.248,6.618c0,0.191,0,0.624,0.048,0.719v0.192
		c0.479,2.878,1.007,5.468,1.487,8.202v0.911c-0.911,0.958-1.774,2.111-2.589,3.213c-1.347,1.87-2.489,3.881-3.405,5.996
		c-0.624,1.487-1.392,3.022-2.016,4.509l-0.095,0.048c-0.481,1.535-1.248,3.022-1.968,4.461c-0.048,0-0.095,0.096-0.143,0.192
		c-0.096,0.191-0.144,0.479-0.239,0.624v0.048c-0.805,2.139-1.718,4.236-2.734,6.283c-0.335,0.672-0.72,1.343-1.104,2.014
		c-0.143,0.385-0.479,0.767-0.479,1.102c-0.481,1.822-0.911,3.646-1.822,5.325c-0.287,1.583-0.72,3.07-1.487,4.509
		c-0.576,2.878-1.535,5.276-2.59,7.866c-0.143,0.385-0.382,0.719-0.382,1.102c0,0.048-0.048,0.096-0.048,0.144
		c-0.048,0.143-0.096,0.382-0.192,0.576c-0.047,0.191-0.095,0.43-0.191,0.624c0,0.048-0.048,0.143-0.048,0.191
		c-0.239,4.94-0.528,9.879-0.767,14.821l0.43,0.144c0.624-1.248,1.248-2.446,1.87-3.694c0.624-1.198,1.104-2.446,1.774-3.694
		c0.385-0.863,1.007-1.726,1.007-2.589c1.439-2.399,2.733-4.797,4.22-7.003c0.144-0.239,0.433-0.385,0.576-0.863
		c1.248-1.919,2.685-4.462,4.172-6.666c0.517-0.847,1.08-1.603,1.555-2.446h-0.02c0.335-0.959,0.863-1.104,1.296-1.535
		c0.43-0.433,0.672-0.863,1.63-1.296c0,0.385,0.096,0.72,0.048,1.055c0,0.047-0.048,0.143-0.048,0.191
		c0,0.191-0.095,0.385-0.143,0.576c0,0.048-0.048,0.144-0.048,0.191c-0.048,0.144-0.048,0.241-0.096,0.385
		c-0.047,0.144-0.047,0.239-0.047,0.385c0,0.143-0.096,0.239-0.048,0.385c0,0.095-0.043,0.191-0.071,0.287h0.071
		c-0.433,2.878-0.433,6.139-0.481,9.16c0,0.144-0.095,0.385-0.095,0.481l0.095-0.048c0.385,2.877,0.863,5.755,1.248,8.633h-0.048
		c0.048,0,0.096,0.624,0.096,0.864c0.479,2.878,1.102,5.802,1.439,8.729c0,0.095,0.048,0.239,0.048,0.334
		c0.048,0.192,0.096,0.335,0.096,0.529c0.479,2.302,2.206,3.885,3.261,5.898c0.767,1.104,1.583,2.398,2.302,3.357h0.048v0.048
		c2.398,2.111,4.414,4.268,7.099,6.187c0.382,0,0.767,0.481,1.15,0.481h-0.048v0.239c0.959,0.096,1.774,0.863,2.783,0.576
		c0.191-0.048,0.385-0.143,0.528-0.239c0.144-0.096,0.335-0.191,0.385-0.335c0.239-0.433-0.191-0.672-0.528-0.815
		c-3.933-2.494-3.309-6.572-3.79-10.408h0.144v-0.048c0.959,0.911,1.63,1.822,2.445,2.783c0.144,0.192,0.289,0.385,0.481,0.528
		c0.335,0.385,0.672,0.72,1.007,1.104c0.671,0.719,1.391,1.391,2.159,2.014c0.767,0.624,1.582,1.296,2.493,1.774
		c0.385,0.144,0.768,0.481,1.104,0.481h-0.096c2.877,1.391,5.372,2.734,8.009,4.124c0.576,0.096,1.104,0.287,1.583,0.72
		c0.959,2.877,2.111,5.755,1.822,9.112c0.096,0,0.191,0.335,0.239,0.576c0.048,0.241,0,0.433-0.048,0.624
		c0.335,2.783,0.335,5.612-0.047,8.395c0.102,0.25,0.085,0.532-0.048,0.767c-0.048,0.096,0,0.144-0.048,0.239h0.048
		c0,2.783-0.048,5.564-0.768,8.299c-0.047,2.733-0.911,5.372-1.2,8.105c0,0.096-0.048,0.191-0.095,0.335
		c-0.144,0.528-0.385,1.15,0.767,1.007v-0.048c2.591-2.685,5.181-5.325,7.579-8.347v0.192c0.048-0.959,0.624-1.44,1.15-1.919
		c1.007-0.959,2.016-2.589,3.022-3.981c1.007-1.391,2.016-2.734,3.022-4.124c0-0.096,0.048-0.144,0.048-0.239
		c0.143-0.481,0.335-0.768,0.576-0.911c0.096-0.048,0.191-0.096,0.287-0.096h0.287c0.287,0.048,0.624,0.144,1.007,0.385
		c0.528,0.287,1.054,0.624,1.535,0.959c2.877,1.582,6.14,2.637,8.296,5.372c0.239,0.239,0.529,0.287,0.768,0.767
		c1.006,0.481,1.917,1.583,2.637,2.639c0.239,0.239,0.528,0.479,0.767,0.719c0.048,0.048,0.096,0.048,0.144,0.096
		c3.789,3.213,4.077,4.939,1.344,9.209c-0.096,0.144-0.241,0.287-0.335,0.287c-0.113,0.387-0.274,0.758-0.481,1.104
		c-0.095,0.239-0.239,0.479-0.382,0.719c-0.048,0.096-0.144,0.241-0.192,0.335c-0.719,1.15-1.487,2.35-1.774,3.694
		c-0.239,1.102-0.433,2.255-0.239,3.357c0.528,1.87,1.007,3.789,1.391,5.707c0.239,1.15,0.481,2.302,0.576,3.5
		C210.156,397.812,208.814,399.539,206.414,400.738z M219.174,424.096L219.174,424.096c-0.624,0.768-0.719,2.35-1.726,2.207h-0.096
		c-0.095,0-0.191,0.048-0.287,0c-1.822-0.239-3.741-0.672-5.324-1.726c-0.576-0.385-0.433-1.104-0.433-1.776v-9.066
		c0-0.624,0.241-1.342-0.382-1.774c-2.111-1.343-1.583-3.646-2.111-5.563c-0.192-0.768,0.334-1.15,0.767-1.631
		c1.87-2.063,3.694-4.124,5.564-6.187c1.248-1.344,1.774-2.831,0.863-4.462c-1.727-3.261-1.44-6.379-0.048-9.688
		c1.102-2.589,1.822-5.324,2.829-8.394c0.096,0.096,0.192,0.239,0.289,0.335v-0.003c1.87,2.349,3.741,4.368,4.987,6.718
		c3.022,5.803,7.481,10.025,13.238,13.093c2.685,1.44,5.106,3.427,8.271,3.81l0.049,0.008c0.14,0,0.231-0.027,0.37-0.028
		c0.335-0.001,0.805-0.044,0.711,0.479c-0.048,0.287-0.335,0.287-0.624,0.241h-0.143c-0.096,0-0.192,0-0.287-0.048
		c-3.341,0.096-6.608,0.649-9.85,1.341c-1.702,0.357-3.396,0.757-5.087,1.154c-1.527,0.353-3.053,0.7-4.585,1.006
		c-0.098,0.021-0.194,0.05-0.287,0.087c-0.016,0.003-0.032,0.006-0.048,0.009c-0.671,0.143-0.958,0.479-0.863,1.15
		c0.096,0.815,0.385,1.248,1.344,1.439c1.714,0.316,3.5,0.367,5.222,0.331l0.246,0.004c2.363-0.057,4.719-0.282,7.05-0.672
		c2.601-0.421,5.232-0.63,7.866-0.624c2.542,0,5.086,0.192,7.675,0.577c-8.586,1.391-15.684,6.235-23.454,9.496
		c-4.029,1.679-7.147,4.892-10.984,6.955C219.605,423.233,219.461,423.76,219.174,424.096z M244.018,430.427L244.018,430.427
		c0,0.048-0.048,0.048-0.048,0.096c-0.048,0.048-0.096,0.048-0.143,0.048c-0.048,0-0.144-0.048-0.192-0.048
		c-0.101-0.054-0.185-0.138-0.239-0.239c-5.611-1.392-11.271-2.783-17.219-4.268c1.968-1.583,3.405-2.494,5.803-1.583
		c3.933,1.535,7.579,3.694,11.366,5.468c0.192,0,0.433,0.048,0.576,0.191c0.096,0.048,0.096,0.096,0.096,0.239L244.018,430.427
		L244.018,430.427z M260.95,448.797c-0.911,1.535-2.302,2.639-3.694,3.694c-2.783,2.111-5.803,3.694-9.64,4.844
		c1.391-4.318,2.542-8.296,4.892-11.703c1.535-2.207,5.229-2.783,7.531-1.487C261.573,445.008,262.005,447.071,260.95,448.797z
		 M283.3,423.281L283.3,423.281c-4.412,3.548-8.777,7.146-12.901,11.031c-1.007,0.959-1.774,1.007-2.927,0.287
		c-7.05-4.172-14.388-7.674-21.919-10.888c-3.309-1.391-6.812-1.965-10.216-3.165c0.385-0.72,1.102-0.72,1.678-0.911
		c7.338-2.733,14.821-5.181,22.015-8.394c1.87-0.864,3.742-0.144,5.564,0.095c2.735,0.385,5.372,0.433,7.866-0.911
		c0.43-0.239,0.911-0.43,1.439-0.191c5.564,2.302,11.127,4.605,16.882,6.955C288.311,419.248,285.817,421.279,283.3,423.281z
		 M317.642,398.915L317.642,398.915c-2.302,2.975-2.685,6.332-1.535,9.785c1.344,4.124,0.385,6.955-3.644,8.968
		c-0.913,0.481-1.631,0.768-2.399,0.72c-0.576,0.048-1.102-0.096-1.774-0.576c-7.481-5.181-16.403-6.907-24.798-9.879
		c-1.199-0.433-2.35-0.864-3.598-1.15c-1.439-0.335-1.343-1.296-1.15-2.303c0.144-0.72,0.528-0.815,0.911-0.767
		c0.385-0.096,0.911,0.191,1.248,0.287c9.592,2.398,19.28,4.315,28.538,7.913c0.334,0.144,0.622,0.192,0.863,0.241
		c0.671-0.096,0.863-0.72,0.767-1.631c-0.191-2.159-0.385-4.268-2.877-5.42c-6.188-2.879-12.758-4.124-19.474-4.653
		c-0.99-0.087-1.981-0.15-2.974-0.191c4.748-2.877,9.977-4.413,14.245-8.105c0.528-0.433,1.006-0.863,1.487-1.344l7.961-9.64
		c0.335-0.528,0.624-1.054,0.959-1.582c0.087,0.036,0.167,0.085,0.239,0.143l0.144-0.143c0.767,0.43,0.815,1.006,1.007,1.486
		c2.014,4.94,3.98,9.93,5.996,14.869C318.265,397.046,318.362,398.004,317.642,398.915z M420.236,195.12L420.236,195.12
		c0.13,0.137,0.228,0.301,0.287,0.481c0.056,0.143,0.039,0.304-0.048,0.43c-0.07,0.118-0.169,0.217-0.287,0.287
		c-0.096,0.144-0.144,0.191-0.192,0.287l-0.047,0.048c-0.048,0.048-0.048,0.096-0.096,0.191c0,0.048-0.048,0.096-0.048,0.096h0.048
		v0.143c-2.879,2.927-2.111,5.66,0.191,8.299c0.144,0.239,0.287,0.479,0.287,0.72c1.919,2.541,0.335,5.083,0,7.625
		c-0.047,0.241-0.095,0.335-0.287,0.433c-0.048,0-0.095,0.048-0.143,0.048c-0.192,0-0.385-0.048-0.576-0.096
		c-0.048,0-0.144-0.048-0.192-0.048c-1.678-0.479-3.357-1.006-5.035-1.535c-0.143,0-0.239-0.095-0.385-0.143
		c-0.143,0-0.239-0.144-0.382-0.144c-0.768,0-1.631-0.048-2.351-0.382c-2.157-0.911-4.124-0.624-5.85,1.006
		c-0.009,0.133-0.042,0.262-0.096,0.385c0.815,1.2,2.159,1.487,3.357,1.87c4.892,1.583,9.066,4.605,13.573,6.955
		c1.055,0.576,1.248,1.822,1.15,3.022c-0.048,0.672-0.239,1.343-0.382,2.063l-1.44,6.187c0,0.529-0.048,1.055-0.385,1.535
		c0.048,3.357-2.302,5.852-3.404,8.73c-0.144,0.239-0.239,0.334-0.385,0.815c-0.763,2.025-1.627,4.009-2.589,5.947
		c0,0.144-0.192,0.335-0.241,0.481v-0.096c0,0.048-0.047,0.048-0.047,0.096c0,0.047-0.048,0.095-0.096,0.191
		c-0.048,0.048-0.048,0.096-0.096,0.143c-0.239,0.911-0.382,1.87-1.15,2.639c-0.767,3.07-2.255,5.85-3.742,8.633
		c-0.143,0.239-0.239,0.239-0.334,0.72c-1.248,2.877-2.542,6.331-3.79,9.496c-0.287,1.15-0.528,2.303-0.815,3.405l-0.144,0.287
		c0,0.048-0.048,0.048-0.048,0.096c0,0.095-0.095,0.191-0.143,0.287c-0.048,1.487-0.144,2.637-0.72,3.837
		c-0.239,0.768-0.431,1.631-0.672,2.398c0,0.096-0.047,0.239-0.095,0.385c-1.344,6.092-2.685,12.184-4.029,18.226
		c-1.102,4.987-1.535,10.072-2.35,15.06c-0.768,4.7-0.959,9.544-2.111,14.149c-0.815,3.357-2.734,6.474-4.268,9.592
		c-1.439,2.926-2.35,6.044-4.124,8.873l-0.144,0.287c-0.101,0.2-0.181,0.409-0.239,0.624c-0.048,0.095-0.048,0.239-0.096,0.335
		c-0.048,0.239-0.095,0.43-0.143,0.671c-0.048,0.241-0.048,0.481-0.048,0.72s0,0.479-0.048,0.72v0.719c0,0.481,0,0.959-0.048,1.439
		c-0.382,5.134-1.054,10.265-0.815,15.445c0.048,0.959-0.239,1.487-1.15,1.822l-1.153,0.433c-0.767,0.287-1.534,0.624-2.254,0.959
		c-0.385,0.143-0.815,0.335-1.2,0.479c-0.624,0.239-1.007,0.433-1.968,0.672v-0.096c0,0-0.143,0.096-0.239,0.096
		c-0.863,0.385-1.774,0.767-2.637,1.102c-0.624,0.239-1.248,0.529-1.87,0.768c-1.296,0.911-2.734,1.439-4.22,1.822l-0.719,0.43
		c-3.023,1.344-6.188,2.733-9.067,4.077c0,0.048-0.287,0.143-0.382,0.143c-1.631,0.481-3.309,1.44-4.94,2.207
		c-1.774,0.767-3.5,1.487-5.276,2.255c-2.783,1.245-5.564,2.398-8.347,3.644c-0.095,0.048-0.239,0-0.335,0
		c-2.541,0.959-5.181,2.351-7.579,3.454c-0.958,0.528-2.35,1.055-3.548,1.535c-2.206,0.863-2.685,0.767-3.165-1.487
		c-1.44-1.055-1.583-2.831-2.111-4.318c-0.529-1.439-0.959-3.022-1.44-4.461c-0.095-0.479-0.335-0.385-0.335-0.672
		c-0.479-0.672-0.479-1.296-0.719-1.965c0-0.096-0.048-0.241-0.048-0.335c-0.143-0.096-0.143-0.239-0.191-0.385
		c-0.048-0.096-0.096-0.239-0.144-0.335h0.096c-0.672-2.014-1.392-3.981-1.87-5.996c-0.479-1.344-1.344-2.637-1.583-4.029
		c-0.095-0.459-0.095-0.932,0-1.391c0.048-0.239,0.096-0.433,0.144-0.672c0.048-0.096,0.048-0.239,0.095-0.335
		c0.385-0.958,1.007-1.869,1.488-2.78c0.334-0.768,0.622-1.535,0.958-2.303c0.335-0.767,0.624-1.343,0.959-2.302
		c0.768-1.439,1.248-3.118,2.207-4.796c0-0.385,0.287-0.768,0.385-1.152c0.863-2.926,1.822-5.898,2.974-8.729
		c0-0.095-0.096-0.239-0.048-0.335c0.335-1.726,1.965-2.35,2.926-3.357v0.048c0.481-0.143,0.72-0.43,0.959-0.43
		c0.287-0.481,0.576-0.672,0.863-0.959c0.528-0.624,1.007-1.296,1.487-1.965c0.241-0.335,0.481-0.672,0.672-1.007
		c0.911-1.344,1.726-2.733,2.733-4.077c0.335-0.43,0.624-1.102,1.15-1.102c0.096,0,0.144,0,0.239,0.048
		c0.768,0.191,0.529,1.102,0.433,1.678c-0.479,2.207-0.335,4.366,0,6.523c0.239,1.678,0.528,3.356,0.672,5.035
		c0,0.239-0.048,0.528-0.048,0.767c0.479,1.248,0.672,2.494,0.72,3.79c0.382,1.63,0.719,3.213,1.2,4.844
		c1.439,2.974,2.493,5.996,3.452,9.066l0.096-0.048c1.631,2.398,3.261,5.181,4.892,7.818c0.479,0.624,1.006,1.296,1.487,1.774h0.095
		v0.385c0.481,0,0.72,1.055,1.44,0.096c-0.144-0.481-0.241-0.481-0.385-0.481c-0.257-0.507-0.466-1.037-0.624-1.583
		c-0.096-0.334-0.239-0.719-0.287-1.006c-0.102-0.33-0.183-0.667-0.239-1.007c-0.048-0.143-0.048-0.335-0.096-0.479
		c-0.037-0.325-0.1-0.646-0.191-0.959c-0.096-0.479-0.144-0.959-0.239-1.487c-0.096-0.479-0.144-1.007-0.241-1.487
		c-0.143-0.144-0.143-0.335-0.143-0.528c-0.043-0.199-0.107-0.393-0.192-0.577c-0.047-0.576-0.143-1.15-0.239-1.726l-0.43-3.452
		c-0.048-0.576-0.241-1.152-0.287-1.727c-0.672-6.283-0.241-12.566,0.719-18.801h0.287c0.576-2.879,1.15-6.188,1.726-9.306
		c0.144,0,0.287,0.048,0.481,0.048c-0.192,5.229,0.335,10.408,1.487,15.493c0.048,0.096,0.048,0.239,0.048,0.335
		c0.719,1.965,1.487,3.933,2.111,5.947c0.143,0.433,0.287,0.863,0.43,1.248c0.144,0.385,0.335,0.815,0.576,1.15
		c0.144,0.239,0.335,0.481,0.529,0.72c0.143,0.239,0.43,0.479,0.43,0.719c0.481,0.385,0.72,0.816,1.104,1.201
		c0.287,0.334,0.528,0.719,0.815,1.054c1.007,0.959,2.063,1.87,3.309,3.118c-0.13-0.925-0.241-1.853-0.335-2.783
		c-0.095-0.863-0.239-1.726-0.335-2.685c0,0-0.239-0.144-0.239-0.239c0-0.72-0.096-1.44-0.191-2.159
		c-0.287-2.207-0.529-4.414-0.816-6.572c0-0.191,0-0.334,0.048-0.528c0-0.191,0.048-0.528,0.048-0.528
		c-0.385-2.879-0.431-5.516-0.385-8.299c0-0.095-0.047-0.239-0.047-0.335c-0.089-0.213-0.138-0.44-0.144-0.671
		c-0.385-2.255-0.191-4.509,0.096-6.716c0.095-0.672,0.048-1.391,0.095-2.063c0-0.144-0.047-0.239-0.047-0.385
		c0-3.165,0.143-6.379,1.102-9.449c0-0.095,0.048-0.335,0.048-0.335c0.239-1.439,0.479-3.165,0.719-4.748
		c0.241-1.583,0.481-3.213,0.672-4.796c0.096-0.672,0.287-1.007,0.672-1.007c0.191,0,0.479,0.096,0.815,0.335
		c0.335,0.192,0.672,0.433,1.007,0.624c0.479,0.287,1.006,0.624,1.487,0.959c0.479,0.335,0.959,0.672,1.391,1.102
		c0.048,0.048,0.096,0.096,0.192,0.144c0.095,0.096,0.335,0.239,0.335,0.239h0.095v-0.048c3.357,1.679,5.229,4.509,7.481,7.147
		c0.433,0.287,0.72,0.576,1.056,0.958c0.528,0.577,0.863,1.296,1.15,2.064c1.473,1.938,2.608,4.111,3.357,6.426
		c0.048,0.192,0.144,0.433,0.192,0.624c0.047,0.192,0.143,0.096,0.191,0.576c0.385,0.481,0.624,1.104,0.863,1.679
		c0.239,0.576,0.433,1.15,0.672,1.678c0.143,0.287,0.239,0.528,0.385,0.816c0.095,0.191,0.191,0.334,0.334,0.479
		c0.192,0.239,0.433,0.385,0.816,0.479c0.528-1.774-0.72-3.452-0.241-5.133h0.144c0-0.479-0.144-0.479-0.144-0.719
		c-0.479-3.118-0.863-6.188-2.157-9.066c-0.048-0.239-0.048-0.768-0.048-0.768c-1.15-2.878-1.727-5.803-3.405-8.346
		c-0.385-0.287-0.624-0.768-0.72-1.248c-0.528-0.479-0.815-1.054-1.102-1.63c-0.239-0.385-0.479-0.768-0.767-1.248v0.334
		c0-0.047-0.096-0.095-0.096-0.143v-0.048c-1.296-1.965-2.879-3.789-4.413-5.563l-0.192-0.192c-0.191-0.191-0.382-0.191-0.576-0.672
		c-1.15-0.479-2.254-1.917-3.405-2.926c-0.143-0.143-0.287-0.191-0.382-0.335c-0.096-0.096,0-0.191-0.481-0.335
		c-2.398-1.63-4.172-3.646-6.283-5.083c-0.385-0.479-0.863-0.191-1.054-0.959c6.187-0.382,12.181,0.335,18.417,0.72v-0.239h0.047
		c3.07,0.479,5.949,1.054,8.73,2.254c0.095,0,0.191,0.144,0.334,0.144v0.095c1.919,0.433,3.742,1.296,5.564,2.159
		c0.385,0.192,0.863,0.816,1.296,0.239c0.335-0.479-0.192-0.911-0.481-1.294c-0.719-1.007-1.391-2.016-2.159-3.022
		c-0.143-0.239-0.382-0.481-0.382-0.72c-1.44-1.391-2.542-2.974-3.79-4.363c-0.382-0.385-0.815-0.816-1.198-1.296
		c-1.439-0.959-2.926-2.063-4.172-3.405c-0.239-0.143-0.479-0.43-0.72-0.43c-0.624,0-1.294-0.672-1.917-1.104
		c-0.624-0.43-1.296-0.815-1.919-1.248c-0.239-0.143-0.479-0.239-0.719-0.382c-2.927-1.104-5.852-2.111-8.779-3.214
		c-0.095,0-0.286-0.048-0.286-0.095c0-0.001-0.241,0-0.335-0.048c-0.624-0.048-1.104-0.239-1.44-0.576
		c-0.241-0.184-0.424-0.435-0.528-0.72c-0.048-0.048-0.048-0.143-0.096-0.239c-0.144-0.399-0.193-0.827-0.143-1.248
		c0.096-1.487,0-2.974-0.239-4.413c-0.048-0.433-0.144-0.816-0.239-1.248c-0.091-0.401-0.187-0.8-0.289-1.2
		c-0.095-0.385-0.191-0.816-0.287-1.248c-0.147-0.595-0.307-1.186-0.479-1.774c0,0-0.191-0.048-0.191-0.192
		c-0.481-2.926-1.631-5.85-2.494-8.729c-0.144-0.382-0.192-0.672-0.335-1.15c-0.767-1.439-1.102-2.255-1.15-3.357
		c0-0.385,0-0.72,0.048-1.102c0-0.192,0.047-0.385,0.047-0.528c0.096-0.529,0.192-1.104,0.385-1.631
		c0.192-0.72,0.433-1.439,0.672-2.159c0-0.096,0-0.335,0.048-0.335h-0.048c0.624-3.405,1.968-6.283,2.926-9.353
		c0-0.048,0.096-0.048,0.096-0.096l0.191-0.191c0.048-0.048,0.096-0.048,0.096-0.096c0.911-1.248,1.15-2.493,1.054-3.692
		c-0.062-0.713-0.239-1.41-0.528-2.064c-0.335-0.863-0.767-1.678-1.199-2.541c-0.048-0.096-0.191-0.191-0.287-0.239
		c-0.048-0.048-0.095-0.096-0.095-0.144c-1.87-1.965-3.07-4.557-4.174-7.098c-0.095-0.241-0.239-0.529-0.334-0.768
		c-0.096-0.096-0.096-0.191-0.144-0.335c0-0.048-0.048-0.095-0.048-0.143c-0.056-0.108-0.104-0.22-0.143-0.335l0.047,0.048
		c0-0.048,0-0.048-0.047-0.096c0.047-0.287,0.143-0.576,0.239-0.863c0.096-0.191,0.191-0.335,0.287-0.528
		c0.096-0.144,0.239-0.287,0.385-0.433c0.047-0.048,0.143-0.096,0.191-0.143c1.296-1.87,2.494-3.838,3.933-5.66
		c1.198-1.583,1.583-3.069,1.007-5.035c-0.816-2.733-0.72-2.783,2.014-3.79c0.479-0.191,6.283-2.398,8.633-3.117
		c0.385-0.144,1.344-0.528,1.487-0.576c0.144-0.048,0.241-0.096,0.385-0.144c0.385-0.143,0.768-0.287,1.102-0.431
		c3.022-1.153,6.045-2.255,9.067-3.357c0.095-0.048,0.239-0.048,0.334-0.048c2.831-1.439,5.852-2.35,8.825-3.357
		c0.385-0.144,0.72-0.287,1.2-0.385c0.481-0.382,1.919-0.719,2.398-1.102c2.398-0.768,4.318-1.87,6.475-2.35
		c3.165-2.398,5.755-1.392,7.914,1.582c0.287,0.192,0.576,0.385,0.863,0.624c0.43,0.385,0.576,0.816,1.054,1.296
		C416.015,190.709,418.173,192.913,420.236,195.12z M352.799,197.757L352.799,197.757c-0.252,0.082-0.508,0.146-0.768,0.192
		c-0.719,0.095-1.102-0.241-1.582-1.104c-4.366-7.866-8.777-15.684-13.238-23.502c-0.576-1.007-0.768-1.535,0.671-1.919
		c28.346-8.296,56.645-16.595,84.991-24.892c0.287-0.096,0.624-0.144,1.2-0.287v0.096c0.013-0.007,0.031-0.008,0.045-0.013
		c-0.43,5.118-0.862,9.953-1.244,14.785l-0.863,10.695c-0.096,1.296-0.479,2.111-1.87,2.59
		C397.67,182.122,375.223,189.907,352.799,197.757z"/>
	<path style="fill:#1A1A1A;" d="M180.66,435.704c-1.344-0.529-2.831-0.624-3.454,1.15c-0.385,1.007-1.054,0.863-1.822,0.767
		c-5.133-0.767-9.64,0.768-13.286,4.366c-7.579,7.385-11.464,16.26-11.031,27.05c0.287,7.147,4.412,10.6,11.366,9.016
		c13.764-3.213,24.461-16.69,25.037-31.607C187.615,442.61,184.112,437.046,180.66,435.704z M178.74,451.291
		c-0.72,5.852-3.118,11.847-8.442,16.356c-1.87,1.583-4.029,2.542-6.475,2.783c-3.02,0.239-5.324-1.631-5.035-4.653
		c0.576-6.283,2.302-12.229,6.475-17.171c2.685-3.213,6.716-4.077,10.6-2.542C178.068,446.928,178.836,448.03,178.74,451.291
		L178.74,451.291z"/>
	<path style="fill:#1A1A1A;" d="M232.076,469.086L232.076,469.086c-0.672-0.624-1.104-1.343-1.248-2.254
		c-0.529-2.591-0.096-5.133,0.335-7.675c0.767-4.892,2.302-9.688,2.063-14.725c-0.096-1.968-0.385-3.79-2.398-4.749
		c-2.159-1.054-3.742,0.096-5.229,1.44c-2.877,2.637-5.372,5.659-7.818,8.681c-2.446,3.022-4.892,6.092-7.338,9.114
		c-0.385,0.479-0.815,1.391-1.583,1.006c-0.622-0.287-0.382-1.102-0.287-1.726c0.192-2.206,0.481-4.363,0.72-6.57
		c0.287-2.879,0.672-5.755,0.191-8.633c-0.624-3.454-3.117-4.414-5.898-2.255c-0.672,0.528-1.296,1.2-1.87,1.822
		c-2.254,2.542-4.124,5.372-5.947,8.251c-4.509,6.955-8.634,14.197-14.054,20.528c-1.006,1.199-2.063,2.35-2.974,3.646
		c-0.959,1.439-1.344,3.069-0.433,4.604c0.816,1.344,2.207,1.822,3.742,1.727c1.631-0.096,2.494-1.296,3.357-2.446
		c4.172-5.66,8.345-11.368,12.519-17.028c0.239-0.287,0.335-0.863,1.054-0.672c-0.103,0.732-0.184,1.469-0.239,2.207
		c-0.191,2.733-0.768,5.468-0.191,8.25c0.671,3.165,3.165,4.461,6.09,3.022c1.535-0.768,2.831-1.87,4.077-3.022
		c2.366-2.263,4.577-4.683,6.618-7.242c2.255-2.879,4.557-5.803,6.955-8.922c0.72,2.398,0.433,4.557,0.335,6.716
		c-0.239,3.742-0.959,7.481-0.239,11.271c0.479,2.35,1.822,3.741,3.741,3.885c1.968,0.143,3.885-0.287,5.564-1.392
		C234.187,474.362,234.426,471.196,232.076,469.086z"/>
	<path style="fill:#1A1A1A;" d="M213.274,305.484L213.274,305.484c7.961,0.671,15.827,2.254,23.741,3.357
		c1.056,0.143,2.111,0.191,3.118,0.719c2.398,1.248,3.598,3.454,4.509,5.803c1.391,3.598,1.822,7.433,2.063,11.271
		c0.192,3.022-0.43,5.563-2.877,7.579c-1.822,1.487-3.309,3.213-3.981,5.563c3.07,0,5.707,0.528,7.722,3.118
		c1.248,1.63,2.879,2.974,4.462,4.363c3.692,3.311,9.111,2.542,11.703-1.63c1.15-1.87,2.254-3.79,3.5-5.612
		c1.726-2.541,3.405-5.276,6.475-6.379c1.87-0.622,1.054-1.534,0.43-2.302c-1.248-1.583-3.548-1.631-5.611-0.385
		c-3.166,1.919-5.325,4.749-7.627,7.484c-0.672,0.815-1.343,1.63-2.254,2.302c-1.153,0.815-2.159,0.863-3.166-0.191
		c-1.15-1.152-2.302-2.351-3.548-3.357c-1.056-0.863-1.248-1.631-0.624-2.879c1.343-2.589,1.917-5.372,1.63-8.248
		c-0.576-6.236-1.582-12.375-5.996-17.315c-0.479-0.528-0.479-0.815,0.192-1.296c4.892-3.405,7.481-8.105,8.153-14.006
		c0.143-1.486-0.144-2.685-1.344-3.117c-1.199-0.385-1.965,0.815-2.494,1.774c-1.2,2.063-2.734,3.933-4.124,5.852
		c-2.159,2.926-5.181,3.548-8.345,3.069c-11.414-1.774-22.831-2.926-34.343-3.598c-0.576-0.047-1.15-0.191-1.63,0.192
		c-3.646,2.685-7.338,5.276-9.64,9.353c0.143,0.048,0.287,0.143,0.382,0.143c0.385-0.048,0.72-0.143,1.104-0.191
		C200.803,305.435,206.991,304.956,213.274,305.484z"/>
	<path style="fill:#1A1A1A;" d="M280.519,348.699L280.519,348.699c-0.385-0.672-0.863-0.816-1.535-0.433
		c-3.789,2.111-8.057,2.207-12.229,2.734c-1.774,0.239-3.981-0.287-5.277,1.007c-3.165,3.117-5.85,1.822-8.633-0.385
		c-0.144-0.096-0.287-0.239-0.481-0.287c-4.124-2.207-8.248-3.022-12.47-0.096c-1.583,1.104-3.454,1.774-5.325,1.344
		c-1.487-0.385-2.637-0.287-3.789,0.767c-0.576,0.528-1.344,0.959-2.014,1.392c-1.87,1.248-1.87,1.439-0.144,2.829
		c0.385,0.335,0.863,0.481,1.343,0.624c3.981,1.2,7.723,0.335,11.223-1.583c3.646-1.965,7.051-1.869,10.36,0.624
		c3.022,2.255,6.235,2.303,9.592,0.911c4.22-1.774,8.49-3.5,13.047-4.267c0.672-0.096,1.344-0.335,1.968,0.191
		c1.917,1.774,3.741,0.528,5.563-0.191c0.72-0.289,0.816-0.864,0.768-1.583C282.341,350.761,281.19,349.898,280.519,348.699z"/>
	<path style="fill:#1A1A1A;" d="M392.753,446.591c-0.288,0.961-0.761,1.857-1.392,2.637c-2.589,3.213-5.85,5.372-9.929,7.051
		c0.481-3.118,1.007-5.901,2.207-8.49c1.248-2.685,3.261-4.462,6.283-4.749C392.272,442.85,393.423,444.337,392.753,446.591z
		 M394.627,460.695c-1.776-2.403-1.87-2.403,0.522-4.033c5.036-3.448,6.813-8.349,6.426-14.2c-0.282-4.357-2.633-6.907-6.76-7.576
		c-3.406-0.575-6.144,0.867-8.683,2.884c-0.575,0.428-0.909,0.951-1.87,0.334c-2.111-1.442-4.127-1.055-5.893,0.763
		c-1.014,1.055-1.735,2.309-2.069,3.741c-2.497,10.073-5.036,20.093-7.429,30.218c-0.815,3.354,0.961,5.089,4.462,4.556
		c3.156-0.481,4.744-2.299,5.277-6.374c0.522-3.939,1.045-7.826,2.205-11.901c2.967,3.741,5.799,7.241,8.631,10.742
		c0.857,1.045,1.735,2.058,2.664,3.009c2.821-1.776,5.611-3.605,8.349-5.486C398.284,465.345,396.403,463.067,394.627,460.695z"/>
	<path style="fill:#1A1A1A;" d="M319.897,309.944L319.897,309.944c-2.821,1.382-5.589,2.869-8.299,4.461
		c-0.719,0.433-1.391,0.815-2.254,0.959c-4.748,0.863-9.545,1.487-14.436,1.487c-2.831,0-5.133-1.198-7.338-2.589
		c-1.344-0.864-2.685-2.111-2.926-4.029c0.719-0.239,1.391,0.048,2.063,0.143c2.541,0.335,5.035,1.248,7.625,1.104
		c6.236-0.385,12.086-2.255,17.939-4.268c1.919-0.672,3.79-1.391,5.659-2.063c0.863-0.287,1.104-0.576,0.335-1.392
		c-0.911-1.006-1.917-0.815-2.926-0.671c-12.519,1.917-24.941,1.343-37.362-0.911c-3.599-0.672-7.435-0.911-8.825-5.373
		c-0.385-1.198-0.768-2.398-1.007-3.644c-0.239-1.392-1.054-2.399-1.87-3.405c-0.479-0.624-1.102-0.911-1.822-0.768
		c-0.767,0.192-0.719,1.007-0.719,1.583c0.048,2.014,0.143,4.029,0.385,6.044c0.239,2.207,0.958,4.366,2.254,6.14
		c2.494,3.5,5.947,5.659,10.168,6.666c3.118,0.719,3.118,0.767,3.405,3.98c0.144,1.392,0.335,2.639,1.631,3.405
		c2.254,1.344,4.509,2.733,7.242,2.926c1.678,0.144,3.404,0.241,4.844,1.344c1.87,1.439,4.124,1.774,6.379,1.968
		c1.678,0.143,3.404,0.191,5.083,0.479c1.343,0.239,2.254-0.191,3.213-1.007c4.748-3.933,9.449-7.914,13.91-12.327
		C321.719,309.608,320.951,309.417,319.897,309.944z"/>
	<path style="fill:#1A1A1A;" d="M263.108,361.216L263.108,361.216c-4.748,0.144-9.592,0.911-14.054,2.446
		c-3.692,1.248-7.818,2.111-9.735,6.379c-1.104,2.494-0.959,5.133-1.727,7.627c0.335,1.965,0.335,3.933,1.487,5.611
		c0.335,0.481,0.481,1.248,1.296,1.2c0.863-0.048,1.15-0.767,1.392-1.343c0.863-1.822,1.054-3.885,1.63-5.803
		c0.911-3.118,2.35-5.612,5.611-7.003c3.405-1.439,6.86-2.783,10.312-4.124c0.672-0.239,1.344-0.385,2.016-0.239
		c4.268,0.622,8.729,0.43,12.518,2.926c0.335,0.239,0.768,0.335,1.248,0.239c1.439-0.335,1.583-0.815,0.72-1.965
		C272.701,362.848,268.144,361.073,263.108,361.216z"/>
	<path style="fill:#1A1A1A;" d="M229.725,317.666L229.725,317.666c2.879-0.287,5.755-0.671,8.586-1.054
		c0.767-0.096,1.965,0.191,2.159-0.72c0.191-0.959-0.911-1.535-1.583-2.159c-0.335-0.335-0.911-0.382-1.391-0.528
		c-2.879-1.054-5.803-0.815-8.729-0.287c-5.901,1.102-11.847,1.439-17.748,0c-1.582-0.385-3.261-0.385-5.181-0.624
		c-2.206,0.529-4.7,1.055-7.05,2.111c-1.631,0.768-1.727,1.679-0.287,2.783c0.863,0.672,1.726,1.007,2.78,0.624
		c3.694-1.344,6.86-0.624,9.882,1.919c3.022,2.541,6.57,3.07,10.455,1.726c2.111-0.72,3.933-1.919,5.852-2.974
		C228.19,318.098,228.91,317.762,229.725,317.666z"/>
	<path style="fill:#1A1A1A;" d="M178.405,323.039L178.405,323.039c0.144-2.685-0.385-4.989-2.541-6.379
		c-1.583-1.007-2.207-2.398-2.783-4.029c-0.768-2.111-0.959-4.461-2.685-6.14c-0.481-0.479-0.816-1.535-1.679-1.198
		c-1.006,0.385-1.965,0.959-2.254,2.303c-0.959,4.461,1.102,8.729,5.563,11.031c2.016,1.055,3.551,2.542,4.509,4.605
		c0.335,0.72,0.385,2.111,1.44,1.87C179.029,324.861,178.166,323.566,178.405,323.039z"/>
</g>
<path style="fill:#2E2E2E;" d="M88.329,219.438c0-0.096-0.048-0.192-0.095-0.289c-0.096,0.241-0.241,0.529-0.335,0.816
	c-0.144,0.479-0.192,1.006,0,1.726C88.234,220.732,88.474,220.061,88.329,219.438"/>
<g>
</g>
<g>
</g>
<g>
</g>
<g>
</g>
<g>
</g>
<g>
</g>
<g>
</g>
<g>
</g>
<g>
</g>
<g>
</g>
<g>
</g>
<g>
</g>
<g>
</g>
<g>
</g>
<g>
</g>
</svg>
