<?xml version="1.0" encoding="iso-8859-1"?>
<!-- Generator: Adobe Illustrator 19.0.0, SVG Export Plug-In . SVG Version: 6.00 Build 0)  -->
<svg version="1.1" id="Capa_1" xmlns="http://www.w3.org/2000/svg" xmlns:xlink="http://www.w3.org/1999/xlink" x="0px" y="0px"
	 viewBox="0 0 512 512" style="enable-background:new 0 0 512 512;" xml:space="preserve">
<path style="fill:#5C5560;" d="M512,256c0,50.354-14.545,97.332-39.664,136.923c-21.734,34.273-51.388,63.028-86.403,83.696
	c-0.01,0-0.01,0.01-0.021,0.01C347.826,499.106,303.428,512,256,512c-47.417,0-91.826-12.894-129.902-35.37
	c-0.01,0-0.01-0.01-0.021-0.01c-17.857-10.533-34.325-23.176-49.058-37.575c-14.148-13.845-26.697-29.309-37.355-46.101
	C14.545,353.343,0,306.364,0,256c0-51.346,15.12-99.171,41.159-139.254c18.066-27.836,41.409-51.931,68.598-70.886
	C151.207,16.948,201.624,0,256,0s104.793,16.948,146.254,45.871c13.228,9.216,25.548,19.655,36.791,31.159
	c11.86,12.131,22.518,25.422,31.796,39.717l0.01,0.01C496.88,156.829,512,204.654,512,256z"/>
<path style="fill:#FDA22F;" d="M472.67,135.022v250.117c0,2.623-0.115,5.214-0.334,7.785
	c-21.734,34.273-51.388,63.028-86.403,83.696c-0.01,0-0.01,0.01-0.021,0.01c-1.609,0.084-3.218,0.125-4.848,0.125H130.926
	c-1.62,0-3.229-0.042-4.827-0.125c-0.01,0-0.01-0.01-0.021-0.01c-17.857-10.533-34.325-23.176-49.058-37.575
	c-14.148-13.845-26.697-29.309-37.355-46.101c-0.219-2.57-0.334-5.172-0.334-7.805V135.022c0-6.259,0.627-12.372,1.829-18.275
	c7.074-34.962,34.053-62.704,68.598-70.886c6.792-1.609,13.887-2.456,21.17-2.456h250.138c7.293,0,14.388,0.857,21.191,2.466
	c34.544,8.182,61.513,35.924,68.587,70.875l0.01,0.01C472.043,122.661,472.67,128.763,472.67,135.022z"/>
<path style="fill:#FF7411;" d="M472.67,135.011v250.138c0,2.623-0.115,5.214-0.334,7.774
	c-21.734,34.273-51.388,63.028-86.403,83.696c-1.609,0.084-3.239,0.125-4.869,0.125H130.926c-1.63,0-3.239-0.042-4.848-0.125
	c-17.857-10.533-34.325-23.176-49.058-37.575L439.045,77.03l6.792-6.792c12.487,12.476,21.379,28.547,25.015,46.519
	C472.043,122.661,472.67,128.763,472.67,135.011z"/>
<path style="fill:#F2F2F2;" d="M373.767,142.302c0,116.751,0,248.154-41.814,334.454h-65.643
	c22.992-70.708,22.992-164.981,22.992-249.974c-85.008,0-179.28,0-249.974,23.007v-65.657
	C125.628,142.302,257.031,142.302,373.767,142.302z"/>
<path style="fill:#0069CB;" d="M289.301,226.774c0,85.013,0,179.284-22.988,249.971H130.926c-1.63,0-3.239-0.042-4.848-0.125
	c-17.857-10.533-34.325-23.176-49.058-37.575c-14.148-13.845-26.697-29.309-37.355-46.101c-0.219-2.57-0.334-5.172-0.334-7.795
	V249.783C110.017,226.774,204.298,226.774,289.301,226.774z"/>
<path style="fill:#0084C6;" d="M289.301,226.774c0,85.013,0,179.284-22.988,249.971H130.926c-1.63,0-3.239-0.042-4.848-0.125
	c-17.857-10.533-34.325-23.176-49.058-37.575L289.301,226.774z"/>
<g>
</g>
<g>
</g>
<g>
</g>
<g>
</g>
<g>
</g>
<g>
</g>
<g>
</g>
<g>
</g>
<g>
</g>
<g>
</g>
<g>
</g>
<g>
</g>
<g>
</g>
<g>
</g>
<g>
</g>
</svg>
